<?xml version="1.0" encoding="UTF-8" standalone="no"?>
<svg
   xmlns:dc="http://purl.org/dc/elements/1.1/"
   xmlns:cc="http://creativecommons.org/ns#"
   xmlns:rdf="http://www.w3.org/1999/02/22-rdf-syntax-ns#"
   xmlns:svg="http://www.w3.org/2000/svg"
   xmlns="http://www.w3.org/2000/svg"
   xmlns:sodipodi="http://sodipodi.sourceforge.net/DTD/sodipodi-0.dtd"
   xmlns:inkscape="http://www.inkscape.org/namespaces/inkscape"
   width="336.64"
   height="354.67"
   version="1.1"
   viewBox="0 0 336.64 354.67"
   xml:space="preserve"
   id="svg943"
   sodipodi:docname="Click and Save.svg"
   inkscape:version="1.0.2 (e86c870, 2021-01-15)"><defs
   id="defs947" /><sodipodi:namedview
   pagecolor="#ffffff"
   bordercolor="#666666"
   borderopacity="1"
   objecttolerance="10"
   gridtolerance="10"
   guidetolerance="10"
   inkscape:pageopacity="0"
   inkscape:pageshadow="2"
   inkscape:window-width="1536"
   inkscape:window-height="811"
   id="namedview945"
   showgrid="false"
   inkscape:zoom="1.2739764"
   inkscape:cx="138.24094"
   inkscape:cy="316.92173"
   inkscape:window-x="-8"
   inkscape:window-y="-8"
   inkscape:window-maximized="1"
   inkscape:current-layer="svg943"
   inkscape:document-rotation="0" /><metadata
   id="metadata833"><rdf:RDF><cc:Work
       rdf:about=""><dc:format>image/svg+xml</dc:format><dc:type
         rdf:resource="http://purl.org/dc/dcmitype/StillImage" /><dc:title /></cc:Work></rdf:RDF></metadata>
<style
   type="text/css"
   id="style835">
	.st0{fill:#EF3835;}
	.st1{clip-path:url(#SVGID_2_);}
	.st2{fill:#FFFFFF;}
	.st3{fill:#5E2919;}
	.st4{clip-path:url(#SVGID_4_);}
	.st5{clip-path:url(#SVGID_6_);}
	.st6{opacity:0.5;}
	.st7{enable-background:new    ;}
	.st8{fill:#8DC63F;}
	.st9{fill:#231F20;}
	.st10{fill:#8FC640;}
	.st11{fill:#009444;}
	.st12{fill:#FBB042;}
	.st13{fill:#020202;}
	.st14{fill:#F7D5A9;}
	.st15{fill-rule:evenodd;clip-rule:evenodd;fill:#020202;}
	.st16{fill:#EF4147;}
	.st17{clip-path:url(#SVGID_8_);}
	.st18{fill:#010101;}
	.st19{opacity:0.5;enable-background:new    ;}
	.st20{fill:#51A6DC;}
	.st21{fill:#90CFA6;}
	.st22{fill:#CC8D4E;}
	.st23{fill:#B27945;}
	.st24{fill:#EF4247;}
	.st25{fill-rule:evenodd;clip-rule:evenodd;fill:#010101;}
	.st26{fill:#C3DB72;}
	.st27{fill:#FBB040;}
</style>
<g
   id="g941"><rect
     x="-0.016886"
     y="-0.6983"
     width="336.64001"
     height="354.67001"
     fill="#ffffff"
     fill-rule="evenodd"
     stop-color="#000000"
     stroke-linecap="round"
     stroke-linejoin="round"
     stroke-width="7.8592"
     style="paint-order:fill markers stroke"
     id="rect837" /><g
     transform="translate(-277.01,51.277)"
     id="g939"><g
       class="st6"
       transform="translate(-23.166,-218.59)"
       opacity=".5"
       id="g843"><g
         class="st7"
         id="g841"><path
           class="st8"
           d="m 324.1,493 v -11.7 l 26.6,-30.9 c 1.3,-1.5 2.3,-2.9 2.9,-4.2 0.6,-1.3 0.9,-2.7 0.9,-4.4 0,-2.7 -0.7,-4.8 -2.2,-6.5 -1.5,-1.6 -3.6,-2.4 -6.4,-2.4 -1.1,0 -2.1,0.1 -3.1,0.4 -1,0.3 -2,0.8 -2.8,1.5 -0.8,0.7 -1.5,1.6 -2,2.8 -0.5,1.2 -0.8,2.6 -0.8,4.3 h -13 c 0,-3.3 0.6,-6.2 1.6,-8.8 1.1,-2.6 2.6,-4.8 4.6,-6.5 2,-1.8 4.3,-3.2 6.9,-4.1 2.6,-0.9 5.5,-1.4 8.6,-1.4 3.1,0 6,0.5 8.7,1.5 2.7,1 5,2.3 6.9,4.1 1.9,1.8 3.4,3.9 4.5,6.5 1.1,2.6 1.6,5.5 1.6,8.7 0,1.7 -0.2,3.3 -0.5,4.6 -0.3,1.4 -0.8,2.7 -1.4,4 -0.6,1.3 -1.4,2.5 -2.4,3.8 -1,1.2 -2.1,2.5 -3.2,4 l -20.1,23 h 27.5 V 493 Z"
           id="path839" /></g></g><g
       transform="translate(44.834,-218.59)"
       id="g937"><path
         class="st2"
         d="m 490,293.8 c 0,53 -42.9,95.9 -95.9,95.9 -53,0 -95.9,-42.9 -95.9,-95.9 0,-53 42.9,-95.9 95.9,-95.9 52.9,-0.1 95.9,42.8 95.9,95.9 z"
         id="path871" /><path
         class="st10"
         d="m 394.1,391.2 c -26,0 -50.5,-10.1 -68.9,-28.5 -18.4,-18.4 -28.5,-42.9 -28.5,-68.9 0,-53.7 43.7,-97.4 97.4,-97.5 h 0.1 c 53.7,0 97.4,43.7 97.4,97.4 v 0.1 c 0,26 -10.1,50.5 -28.5,68.9 -18.5,18.4 -43,28.5 -69,28.5 z m 0,-191.9 c -0.1,0 -0.1,0 0,0 -52.1,0 -94.5,42.4 -94.5,94.5 0,25.2 9.8,48.9 27.7,66.8 17.8,17.8 41.6,27.7 66.8,27.7 25.2,0 48.9,-9.8 66.8,-27.7 17.8,-17.8 27.7,-41.6 27.7,-66.8 v -0.1 c -0.1,-52 -42.5,-94.4 -94.5,-94.4 z"
         id="path873" /><path
         class="st2"
         d="m 282.2,340.6 78.1,-13.4 c 0.3,0 0.5,-0.2 0.5,-0.5 v -78.1 c 0,-0.3 -0.2,-0.5 -0.5,-0.5 l -78.1,-14.4 c -0.3,0 -0.5,0.2 -0.5,0.5 v 105.9 c 0,0.3 0.2,0.5 0.5,0.5 z"
         id="path875" /><path
         class="st9"
         d="m 282.3,341.7 h -0.1 c -0.9,0 -1.6,-0.8 -1.6,-1.7 V 234.2 c 0,-0.9 0.7,-1.6 1.6,-1.6 h 0.2 l 78,14.4 c 0.8,0.1 1.5,0.8 1.5,1.6 v 78.1 c 0,0.9 -0.7,1.6 -1.5,1.6 z m 0.5,-1.6 z m 0,-105.2 v 104.5 l 76.9,-13.2 v -77.1 z"
         id="path877" /><path
         class="st26"
         d="m 303.6,311.3 35.2,-6.1 c 0.1,0 0.2,-0.1 0.2,-0.2 v -35.2 c 0,-0.1 -0.1,-0.2 -0.2,-0.2 l -35.2,-6.5 c -0.1,0 -0.2,0.1 -0.2,0.2 V 311 c -0.1,0.1 0,0.3 0.2,0.3 z"
         id="path879" /><path
         class="st9"
         d="m 303.6,312.8 h -0.2 c -1,-0.1 -1.6,-0.9 -1.6,-1.8 v -47.7 c 0,-1 0.8,-1.8 1.8,-1.7 h 0.2 L 339,268 c 0.9,0.1 1.5,0.8 1.5,1.7 V 305 c 0,0.9 -0.7,1.6 -1.5,1.7 z m 1.2,-48 v 44.8 l 32.7,-5.6 v -33.1 z"
         id="path881" /><path
         class="st2"
         d="m 518.8,340.6 -78.1,-13.4 c -0.3,0 -0.5,-0.2 -0.5,-0.5 v -78.1 c 0,-0.3 0.2,-0.5 0.5,-0.5 l 78.1,-14.4 c 0.3,0 0.5,0.2 0.5,0.5 v 105.9 c 0,0.3 -0.3,0.5 -0.5,0.5 z"
         id="path883" /><path
         class="st9"
         d="m 518.8,341.7 h -0.2 l -78,-13.4 c -0.8,-0.1 -1.5,-0.8 -1.5,-1.6 v -78.1 c 0,-0.8 0.6,-1.6 1.5,-1.6 l 78.1,-14.4 h 0.1 c 0.9,0 1.6,0.7 1.6,1.6 v 106 c 0,0.8 -0.7,1.5 -1.6,1.5 z m -77.5,-15.5 76.9,13.2 V 234.9 l -76.9,14.2 z m 0,-77.6 z"
         id="path885" /><path
         class="st2"
         d="m 486.3,334.9 -26,-4.2 c -0.1,0 -0.2,-0.2 -0.2,-0.4 v -64.9 c 0,-0.2 0.1,-0.4 0.2,-0.4 l 26,-4 c 0.1,0 0.2,0.2 0.2,0.4 v 73 c 0,0.3 -0.1,0.5 -0.2,0.5 z"
         id="path887" /><path
         class="st9"
         d="m 486.3,336 h -0.2 l -26,-4.2 c -0.6,-0.1 -1.1,-0.6 -1.1,-1.5 v -64.9 c 0,-0.9 0.6,-1.5 1.2,-1.5 l 26.1,-4 c 0.6,0 1.3,0.5 1.3,1.5 v 73 c 0,1.1 -0.7,1.6 -1.3,1.6 z m -25.1,-6.2 24.1,3.9 v -71.3 l -24.1,3.7 z"
         id="path889" /><ellipse
         class="st2"
         cx="480.5"
         cy="297.5"
         rx="1.6"
         ry="3.5999999"
         id="ellipse891" /><path
         class="st9"
         d="m 480.5,302.2 c -1.6,0 -2.8,-2 -2.8,-4.7 0,-2.7 1.2,-4.7 2.8,-4.7 1.6,0 2.8,2 2.8,4.7 0,2.7 -1.2,4.7 -2.8,4.7 z m 0,-7 c -0.2,0.3 -0.5,1.1 -0.5,2.3 0,1.2 0.3,2 0.5,2.3 0.2,-0.3 0.5,-1.1 0.5,-2.3 0,-1.3 -0.3,-2 -0.5,-2.3 z"
         id="path893" /><path
         class="st2"
         d="m 363.9,248.1 h 73.4 c 1.6,0 2.8,1.3 2.8,2.8 v 73.4 c 0,1.6 -1.3,2.8 -2.8,2.8 h -73.4 c -1.6,0 -2.8,-1.3 -2.8,-2.8 v -73.4 c 0,-1.5 1.2,-2.8 2.8,-2.8 z"
         id="path895" /><path
         class="st9"
         d="m 437.3,328.3 h -73.4 c -2.2,0 -3.9,-1.8 -3.9,-3.9 V 251 c 0,-2.2 1.8,-3.9 3.9,-3.9 h 73.4 c 2.2,0 3.9,1.8 3.9,3.9 v 73.4 c 0.1,2.1 -1.7,3.9 -3.9,3.9 z m -73.4,-79.1 c -0.9,0 -1.7,0.8 -1.7,1.7 v 73.4 c 0,0.9 0.8,1.7 1.7,1.7 h 73.4 c 0.9,0 1.7,-0.8 1.7,-1.7 v -73.4 c 0,-0.9 -0.8,-1.7 -1.7,-1.7 z"
         id="path897" /><polygon
         class="st2"
         points="518.8,340.6 282.2,340.6 361.1,326.7 439.7,327.2 "
         id="polygon899" /><path
         class="st9"
         d="M 518.8,341.7 H 282.2 l -0.2,-2.2 79,-13.9 h 0.1 l 78.7,0.5 h 0.1 l 79.1,13.4 z m -224,-2.2 h 210.7 l -66,-11.2 -78.4,-0.5 z"
         id="path901" /><path
         class="st24"
         d="M 379.2,295.4 H 409 c 1.7,0 3,1.4 3,3 v 51 c 0,1.7 -1.4,3 -3,3 h -29.8 c -1.7,0 -3,-1.4 -3,-3 v -51 c 0,-1.6 1.4,-3 3,-3 z"
         id="path903" /><path
         class="st2"
         d="m 415,287.6 h -41.5 c -1.7,0 -3,1.3 -3,3 v 66.6 c 0,1.7 1.3,3 3,3 H 415 c 1.7,0 3,-1.3 3,-3 v -66.6 c 0,-1.6 -1.3,-3 -3,-3 z m -1.9,62.1 c 0,1.7 -1.3,3 -3,3 h -31.7 c -1.7,0 -3,-1.3 -3,-3 v -51.5 c 0,-1.7 1.3,-3 3,-3 h 31.7 c 1.7,0 3,1.3 3,3 z"
         id="path905" /><path
         class="st18"
         d="m 415,361.5 h -41.5 c -2.4,0 -4.3,-1.9 -4.3,-4.3 v -66.6 c 0,-2.4 1.9,-4.3 4.3,-4.3 H 415 c 1.2,0 2.2,0.5 3,1.3 0.8,0.8 1.3,1.9 1.2,3 v 66.5 c 0.1,2.5 -1.8,4.4 -4.2,4.4 z m -41.5,-72.6 c -0.9,0 -1.7,0.8 -1.7,1.7 v 66.6 c 0,0.9 0.8,1.7 1.7,1.7 H 415 c 0.9,0 1.7,-0.8 1.7,-1.7 v -66.6 c 0,-0.5 -0.2,-0.9 -0.5,-1.2 -0.3,-0.3 -0.8,-0.5 -1.2,-0.5 v -1.3 1.3 z m 36.6,65.1 h -31.7 c -2.4,0 -4.3,-1.9 -4.3,-4.3 v -51.5 c 0,-2.4 1.9,-4.3 4.3,-4.3 h 31.7 c 2.4,0 4.3,1.9 4.3,4.3 v 51.5 c 0,2.4 -1.9,4.3 -4.3,4.3 z m -31.7,-57.5 c -0.9,0 -1.7,0.8 -1.7,1.7 v 51.5 c 0,0.9 0.8,1.7 1.7,1.7 h 31.7 c 0.9,0 1.7,-0.8 1.7,-1.7 v -51.5 c 0,-0.9 -0.8,-1.7 -1.7,-1.7 z"
         id="path907" /><ellipse
         class="st2"
         cx="418.89999"
         cy="319.39999"
         rx="7"
         ry="4.5999999"
         id="ellipse909" /><ellipse
         class="st2"
         cx="418.89999"
         cy="330.39999"
         rx="7"
         ry="4.5999999"
         id="ellipse911" /><ellipse
         class="st2"
         cx="418.89999"
         cy="341.39999"
         rx="7"
         ry="4.5999999"
         id="ellipse913" /><ellipse
         class="st2"
         cx="418.89999"
         cy="351.5"
         rx="7"
         ry="4.5999999"
         id="ellipse915" /><polygon
         class="st2"
         points="392.5,393.3 395.9,384.8 356.9,371.3 346.8,391.3 348.1,392.4 "
         id="polygon917" /><polygon
         class="st2"
         points="392.5,383.1 360.2,372 360.2,316.8 361.9,316.8 368.5,320.2 370.3,323.6 370.3,357.6 372.1,360.9 412.1,360.9 "
         id="polygon919" /><path
         class="st18"
         d="m 419.8,313.4 v -23.8 c 0,-2.8 -2.3,-5.1 -5.1,-5.1 h -40.8 c -2.8,0 -5.1,2.3 -5.1,5.1 v 29.1 c -2.2,-2.3 -5.3,-3.6 -8.5,-3.6 -0.9,0 -1.7,0.8 -1.7,1.7 V 370 l -1.1,-0.4 h -0.2 -0.3 -0.3 l -0.3,0.1 c -0.1,0 -0.2,0.1 -0.3,0.2 -0.1,0.1 -0.2,0.1 -0.2,0.2 -0.1,0.1 -0.1,0.2 -0.2,0.3 0,0.1 -0.1,0.1 -0.1,0.2 L 345.4,391 c -0.5,0.8 -0.3,1.8 0.4,2.4 0.8,0.5 1.8,0.3 2.4,-0.4 0.1,-0.1 0.2,-0.3 0.2,-0.4 l 9.5,-19.1 34.3,11.9 1.6,0.6 -2.5,5 c -0.4,0.8 -0.1,1.9 0.8,2.3 0.2,0.1 0.5,0.2 0.8,0.2 0.6,0 1.2,-0.4 1.5,-0.9 l 3.4,-6.8 v -0.1 c 0,0 0,-0.1 0.1,-0.1 v -0.2 -0.4 -0.3 c 0,-0.1 0,-0.2 -0.1,-0.3 0,-0.1 -0.1,-0.2 -0.2,-0.3 -0.1,-0.1 -0.1,-0.2 -0.2,-0.2 -0.1,-0.1 -0.2,-0.1 -0.3,-0.2 -0.1,0 -0.1,-0.1 -0.2,-0.1 h -0.1 l -0.1,-0.1 -1,-0.3 18.2,-20.2 h 1 c 2.8,0 5.1,-2.3 5.1,-5.1 3.7,0 6.8,-3 6.8,-6.7 0,-2 -0.9,-3.9 -2.4,-5.2 2.8,-2.4 3.2,-6.6 0.8,-9.5 -0.2,-0.3 -0.5,-0.5 -0.8,-0.8 2.8,-2.4 3.1,-6.7 0.7,-9.5 -0.2,-0.3 -0.5,-0.5 -0.7,-0.7 2.8,-2.4 3.1,-6.7 0.7,-9.6 -1.5,-1.7 -3.4,-2.5 -5.3,-2.5 z M 392,381.7 361.9,371.2 v -52.5 c 4,0.8 6.8,4.3 6.8,8.3 v 30.6 c 0,2.8 2.3,5.1 5.1,5.1 h 35.3 z m 24.3,-24.1 c 0,0.9 -0.8,1.7 -1.7,1.7 h -40.8 c -0.9,0 -1.7,-0.8 -1.7,-1.7 v -68.1 c 0,-0.9 0.8,-1.7 1.7,-1.7 h 40.8 c 0.9,0 1.7,0.8 1.7,1.7 v 24.1 c -3.6,0.9 -5.8,4.6 -4.9,8.2 0.3,1.4 1.1,2.6 2.2,3.5 -2.8,2.4 -3.2,6.6 -0.8,9.5 0.2,0.3 0.5,0.5 0.8,0.8 -2.8,2.4 -3.1,6.7 -0.7,9.5 0.2,0.3 0.5,0.5 0.7,0.7 -2.8,2.4 -3.2,6.7 -0.7,9.5 0.9,1.1 2.1,1.8 3.5,2.2 z m 3.4,-3.4 H 418 c -1.9,-0.1 -3.3,-1.7 -3.2,-3.6 0.1,-1.7 1.5,-3.1 3.2,-3.2 h 1.7 c 1.9,0.1 3.3,1.7 3.2,3.6 0,1.7 -1.4,3.1 -3.2,3.2 z m 0,-10.2 H 418 c -1.9,-0.1 -3.3,-1.7 -3.2,-3.6 0.1,-1.7 1.5,-3.1 3.2,-3.2 h 1.7 c 1.9,0.1 3.3,1.7 3.2,3.6 -0.1,1.7 -1.4,3.1 -3.2,3.2 z m 0,-10.2 H 418 c -1.9,-0.1 -3.3,-1.7 -3.2,-3.6 0.1,-1.7 1.5,-3.1 3.2,-3.2 h 1.7 c 1.9,0.1 3.3,1.7 3.2,3.6 0,1.7 -1.4,3.1 -3.2,3.2 z m 0,-10.2 H 418 c -1.9,-0.1 -3.3,-1.7 -3.2,-3.6 0.1,-1.7 1.5,-3.1 3.2,-3.2 h 1.7 c 1.9,0.1 3.3,1.7 3.2,3.6 -0.1,1.7 -1.4,3.1 -3.2,3.2 z"
         id="path921" /><path
         class="st18"
         d="m 360.2,381.4 c -0.9,0 -1.7,0.8 -1.7,1.7 0,0.9 0.8,1.7 1.7,1.7 0.9,0 1.7,-0.8 1.7,-1.7 0.1,-0.9 -0.7,-1.7 -1.7,-1.7 0.1,0 0.1,0 0,0 z"
         id="path923" /><path
         class="st18"
         d="m 394.2,347.4 c -2.8,0 -5.1,2.3 -5.1,5.1 0,2.8 2.3,5.1 5.1,5.1 2.8,0 5.1,-2.3 5.1,-5.1 0,-2.8 -2.2,-5.1 -5.1,-5.1 z m 0,6.8 c -0.9,0 -1.7,-0.8 -1.7,-1.7 0,-0.9 0.8,-1.7 1.7,-1.7 0.9,0 1.7,0.8 1.7,1.7 0,0.9 -0.7,1.7 -1.7,1.7 z"
         id="path925" /><path
         class="st18"
         d="m 389.2,294.6 c 0.9,0 1.7,-0.8 1.7,-1.7 0,-0.9 -0.8,-1.7 -1.7,-1.7 -0.9,0 -1.7,0.8 -1.7,1.7 0,1 0.7,1.7 1.7,1.7 z"
         id="path927" /><path
         class="st18"
         d="m 394.2,294.6 h 5.1 c 0.9,0 1.7,-0.8 1.7,-1.7 0,-0.9 -0.8,-1.7 -1.7,-1.7 h -5.1 c -0.9,0 -1.7,0.8 -1.7,1.7 0,1 0.8,1.7 1.7,1.7 z"
         id="path929" /><circle
         class="st2"
         cx="394.20001"
         cy="352.5"
         r="2.5"
         id="circle931" /><path
         class="st2"
         d="m 406.3,356.9 16.5,14.2 2.4,-5.1 c 0,0 6.2,0.3 6.7,0 0.6,-0.2 1.2,-0.2 1.7,0 l 3.2,-5.8 7.8,-1 v -4.5 h 7.4 l 12.5,11.3 7.3,13.6 v 6.8 l -23,25.5 h -6.7 l -35.9,-10.8 v -7.9 l 5.2,0.5 10.9,-0.5 7,1.1 -30.8,-30.6 v -6 c 0,0.4 1.6,-1.9 1.6,-1.9 l 4.6,-1.1 2.5,1.1 z"
         id="path933" /><path
         class="st18"
         d="m 440.8,414.2 c 4,1.2 8.3,0.1 11.1,-3 L 471.3,390 c 2.5,-2.7 3.4,-6.5 2.5,-10 -1.9,-7.1 -5.8,-13.6 -11.2,-18.6 l -8.5,-7.8 c -3,-2.8 -7.7,-2.7 -10.6,0.1 -1,1.1 -1.7,2.4 -2,3.8 -3.9,-1.3 -8.1,0.9 -9.4,4.8 -0.1,0.3 -0.2,0.6 -0.2,0.9 -2.8,-0.9 -5.8,-0.1 -7.8,2.1 -0.8,0.8 -1.3,1.8 -1.6,2.9 l -14,-12.8 c -3.1,-2.8 -7.8,-2.6 -10.6,0.5 0,0.1 -0.1,0.1 -0.1,0.2 -2.6,3.2 -2.3,7.8 0.8,10.6 l 27.1,24.9 -13.5,-1.9 c -3.1,-0.4 -6.1,1 -7.6,3.7 -1.4,2.5 -1.3,5.6 0.4,8 1,1.4 2.4,2.4 4,2.9 z m -32.5,-15.3 c -0.7,-1 -0.7,-2.3 -0.1,-3.4 0.6,-1.2 1.9,-1.8 3.3,-1.6 l 20.4,2.9 c 0.9,0.1 1.8,-0.4 2.2,-1.2 0.4,-0.8 0.2,-1.9 -0.5,-2.5 l -32.2,-29.6 c -1.4,-1.2 -1.5,-3.2 -0.4,-4.6 0.6,-0.7 1.4,-1.1 2.2,-1.1 0.9,-0.1 1.7,0.3 2.4,0.8 l 22.9,21 c 0.9,0.8 2.2,0.7 3,-0.1 0.8,-0.8 0.7,-2.2 -0.1,-3 l -4,-3.6 c -1.4,-1.1 -1.5,-3.2 -0.4,-4.5 1.1,-1.4 3.2,-1.5 4.5,-0.4 l 0.2,0.2 5.5,5.1 c 0.9,0.8 2.2,0.7 3,-0.1 0.8,-0.8 0.7,-2.2 -0.1,-3 l -3.2,-2.9 c -1.4,-1.1 -1.5,-3.2 -0.4,-4.5 1.1,-1.4 3.2,-1.5 4.5,-0.4 l 0.2,0.2 4.7,4.4 c 0.9,0.8 2.2,0.7 3,-0.1 0.8,-0.8 0.7,-2.2 -0.1,-3 l -2.4,-2.2 c -0.6,-0.6 -1,-1.4 -1,-2.3 0,-0.9 0.3,-1.7 0.9,-2.3 1.3,-1.2 3.3,-1.2 4.6,0 l 8.5,7.8 c 4.8,4.4 8.3,10.2 10,16.5 0.6,2.1 0,4.4 -1.5,6 l -19.5,21.2 c -1.7,1.8 -4.3,2.5 -6.6,1.8 l -32,-10 c -0.4,-0.5 -1,-0.9 -1.5,-1.5 z"
         id="path935" /></g></g></g>
<g
   aria-label="Develop your eSpace3D"
   id="text1008"
   style="font-size:21.2984px;line-height:1.25;font-family:NokiaKokia;-inkscape-font-specification:NokiaKokia;letter-spacing:0px;word-spacing:0px;fill:#8fc640;fill-opacity:1;stroke-width:0.53246"
   transform="translate(16)"><path
     d="m 54.277567,300.87854 v -15.28743 0 h 1.59114 v 0 h 4.950214 q 3.151082,0 4.783821,1.85113 1.643138,1.85113 1.643138,5.4182 0,3.93105 -1.705536,5.97978 -1.695136,2.03832 -4.981413,2.03832 h -4.690224 v 0 z m 3.19268,-2.6311 v 0 h 2.693499 q 1.944727,0 2.911891,-1.31035 0.977563,-1.32075 0.977563,-3.95185 0,-2.38151 -0.904766,-3.56707 -0.904766,-1.19596 -2.724698,-1.19596 h -2.953489 v 0 z"
     style="font-style:normal;font-variant:normal;font-weight:normal;font-stretch:normal;font-family:Helvetica;-inkscape-font-specification:Helvetica;fill:#8fc640;fill-opacity:1;stroke-width:0.53246"
     id="path1034" /><path
     d="m 73.90163,301.16973 q -2.579103,0 -3.983051,-1.59114 -1.393547,-1.59114 -1.393547,-4.53423 0,-2.7143 1.424746,-4.24304 1.424747,-1.53914 3.951852,-1.53914 2.589503,0 3.983051,1.57034 1.403947,1.55994 1.403947,4.45103 0.0208,0.33279 -0.052,0.67597 v 0 h -7.706111 v 0 q 0.103996,1.34155 0.592778,2.00713 0.623976,0.83197 2.079922,0.83197 0.675974,0 1.247953,-0.38479 0.582378,-0.38478 0.696774,-0.92556 v 0 h 3.036686 v 0 q -0.384786,1.72633 -1.788733,2.7039 -1.393548,0.97756 -3.494269,0.97756 z m 2.277515,-7.11333 v 0 q -0.103997,-1.01917 -0.54078,-1.59114 -0.571979,-0.75918 -1.778333,-0.75918 -1.154357,0 -1.757534,0.88397 -0.374386,0.56158 -0.54078,1.46635 v 0 z"
     style="font-style:normal;font-variant:normal;font-weight:normal;font-stretch:normal;font-family:Helvetica;-inkscape-font-specification:Helvetica;fill:#8fc640;fill-opacity:1;stroke-width:0.53246"
     id="path1036" /><path
     d="m 80.162194,289.56376 v 0 h 1.643139 1.653538 v 0 l 2.412709,8.43409 v 0 0 l 2.433509,-8.43409 v 0 h 1.570341 1.570341 v 0 l -4.087047,11.31478 h -1.549542 -1.559941 z"
     style="font-style:normal;font-variant:normal;font-weight:normal;font-stretch:normal;font-family:Helvetica;-inkscape-font-specification:Helvetica;fill:#8fc640;fill-opacity:1;stroke-width:0.53246"
     id="path1038" /><path
     d="m 97.591942,301.16973 q -2.579103,0 -3.98305,-1.59114 -1.393548,-1.59114 -1.393548,-4.53423 0,-2.7143 1.424747,-4.24304 1.424746,-1.53914 3.951851,-1.53914 2.589508,0 3.983048,1.57034 1.40395,1.55994 1.40395,4.45103 0.0208,0.33279 -0.052,0.67597 v 0 h -7.706109 v 0 q 0.103996,1.34155 0.592778,2.00713 0.623977,0.83197 2.079922,0.83197 0.675975,0 1.247953,-0.38479 0.582378,-0.38478 0.696774,-0.92556 v 0 h 3.036682 v 0 q -0.38478,1.72633 -1.78873,2.7039 -1.393546,0.97756 -3.494268,0.97756 z m 2.277515,-7.11333 v 0 q -0.103996,-1.01917 -0.54078,-1.59114 -0.571978,-0.75918 -1.778333,-0.75918 -1.154357,0 -1.757534,0.88397 -0.374386,0.56158 -0.54078,1.46635 v 0 z"
     style="font-style:normal;font-variant:normal;font-weight:normal;font-stretch:normal;font-family:Helvetica;-inkscape-font-specification:Helvetica;fill:#8fc640;fill-opacity:1;stroke-width:0.53246"
     id="path1040" /><path
     d="m 105.03806,300.87854 v -15.28743 0 h 1.48715 1.49754 v 0 15.28743 0 h -1.48714 z"
     style="font-style:normal;font-variant:normal;font-weight:normal;font-stretch:normal;font-family:Helvetica;-inkscape-font-specification:Helvetica;fill:#8fc640;fill-opacity:1;stroke-width:0.53246"
     id="path1042" /><path
     d="m 115.99925,301.16973 q -2.6519,0 -4.22224,-1.59114 -1.55994,-1.59114 -1.55994,-4.29504 0,-2.7663 1.55994,-4.38864 1.57034,-1.63273 4.22224,-1.63273 2.6727,0 4.23264,1.63273 1.55994,1.62234 1.55994,4.38864 0,2.7039 -1.55994,4.29504 -1.55994,1.59114 -4.23264,1.59114 z m 0,-2.49591 q 1.33115,0 2.02792,-0.87356 0.69678,-0.87357 0.69678,-2.54791 0,-1.71593 -0.69678,-2.5999 -0.69677,-0.89437 -2.02792,-0.89437 -1.33115,0 -2.02792,0.89437 -0.68638,0.88397 -0.68638,2.5999 0,1.67434 0.68638,2.54791 0.69677,0.87356 2.02792,0.87356 z"
     style="font-style:normal;font-variant:normal;font-weight:normal;font-stretch:normal;font-family:Helvetica;-inkscape-font-specification:Helvetica;fill:#8fc640;fill-opacity:1;stroke-width:0.53246"
     id="path1044" /><path
     d="m 123.81976,289.56376 v 0 h 1.41435 1.42474 v 0 1.67434 0 l 0.19759,-0.28079 q 1.20636,-1.69513 3.18229,-1.69513 2.15271,0 3.45267,1.59114 1.31035,1.59114 1.31035,4.19104 0,2.7559 -1.31035,4.44063 -1.29996,1.68474 -3.45267,1.68474 -1.96553,0 -3.17189,-1.58074 l -0.0624,-0.0832 v 0 5.80298 0 h -1.48715 -1.49754 v 0 z m 5.3662,9.15166 q 1.19595,0 1.87193,-0.89437 0.67597,-0.90476 0.67597,-2.5063 0,-1.63274 -0.67597,-2.54791 -0.66558,-0.92556 -1.86153,-0.92556 -1.19596,0 -1.87193,0.94636 -0.66558,0.94637 -0.66558,2.6311 v 0 0 0 q 0,1.54955 0.66558,2.42311 0.67597,0.87357 1.86153,0.87357 z"
     style="font-style:normal;font-variant:normal;font-weight:normal;font-stretch:normal;font-family:Helvetica;-inkscape-font-specification:Helvetica;fill:#8fc640;fill-opacity:1;stroke-width:0.53246"
     id="path1046" /><path
     d="m 152.90747,289.56376 -4.05585,11.55397 q -0.97756,2.85989 -1.67434,3.58787 -0.69677,0.72797 -2.4855,0.72797 l -1.42475,-0.0312 v -2.39191 q 0.104,0.0416 0.57198,0.0416 1.19595,0 1.55994,-0.48878 0.22879,-0.31199 0.45758,-1.28955 v 0 l -4.22224,-11.70997 v 0 h 1.64314 1.65354 v 0 l 2.46471,8.39249 v 0 0 l 2.39191,-8.39249 v 0 h 1.55994 z"
     style="font-style:normal;font-variant:normal;font-weight:normal;font-stretch:normal;font-family:Helvetica;-inkscape-font-specification:Helvetica;fill:#8fc640;fill-opacity:1;stroke-width:0.53246"
     id="path1048" /><path
     d="m 159.78161,301.16973 q -2.6519,0 -4.22224,-1.59114 -1.55994,-1.59114 -1.55994,-4.29504 0,-2.7663 1.55994,-4.38864 1.57034,-1.63273 4.22224,-1.63273 2.6727,0 4.23264,1.63273 1.55994,1.62234 1.55994,4.38864 0,2.7039 -1.55994,4.29504 -1.55994,1.59114 -4.23264,1.59114 z m 0,-2.49591 q 1.33115,0 2.02792,-0.87356 0.69678,-0.87357 0.69678,-2.54791 0,-1.71593 -0.69678,-2.5999 -0.69677,-0.89437 -2.02792,-0.89437 -1.33115,0 -2.02792,0.89437 -0.68638,0.88397 -0.68638,2.5999 0,1.67434 0.68638,2.54791 0.69677,0.87356 2.02792,0.87356 z"
     style="font-style:normal;font-variant:normal;font-weight:normal;font-stretch:normal;font-family:Helvetica;-inkscape-font-specification:Helvetica;fill:#8fc640;fill-opacity:1;stroke-width:0.53246"
     id="path1050" /><path
     d="m 170.67,289.56376 v 7.08214 q 0,1.03996 0.44718,1.53914 0.44719,0.49918 1.37275,0.49918 1.16476,0 1.78873,-0.70717 0.62398,-0.70717 0.62398,-2.03832 v 0 -6.37497 0 h 1.48715 1.49754 v 0 11.31478 0 h -1.41435 -1.42474 v 0 -1.69514 0 0 q -0.156,0.31199 -0.37439,0.58238 -1.10236,1.40395 -3.19268,1.40395 -1.78873,0 -2.7975,-1.05036 -0.99836,-1.06076 -0.99836,-2.93269 v -7.62292 0 h 1.48715 z"
     style="font-style:normal;font-variant:normal;font-weight:normal;font-stretch:normal;font-family:Helvetica;-inkscape-font-specification:Helvetica;fill:#8fc640;fill-opacity:1;stroke-width:0.53246"
     id="path1052" /><path
     d="m 180.65362,300.87854 v -11.31478 0 h 1.41435 1.42475 v 0 2.02793 0 0 q 0.15599,-0.33279 0.35358,-0.64478 1.05036,-1.68473 2.7143,-1.68473 l 0.67598,0.0104 v 3.04708 q -0.39519,-0.0416 -0.89437,-0.0416 -1.36235,0 -2.03832,0.67598 -0.66558,0.67597 -0.66558,2.04872 v 0 5.87578 0 h -1.48714 z"
     style="font-style:normal;font-variant:normal;font-weight:normal;font-stretch:normal;font-family:Helvetica;-inkscape-font-specification:Helvetica;fill:#8fc640;fill-opacity:1;stroke-width:0.53246"
     id="path1054" /><path
     d="m 199.36253,301.16973 q -2.57911,0 -3.98305,-1.59114 -1.39355,-1.59114 -1.39355,-4.53423 0,-2.7143 1.42474,-4.24304 1.42475,-1.53914 3.95186,-1.53914 2.5895,0 3.98305,1.57034 1.40394,1.55994 1.40394,4.45103 0.0208,0.33279 -0.052,0.67597 v 0 h -7.70611 v 0 q 0.10399,1.34155 0.59277,2.00713 0.62398,0.83197 2.07993,0.83197 0.67597,0 1.24795,-0.38479 0.58238,-0.38478 0.69677,-0.92556 v 0 h 3.03669 v 0 q -0.38479,1.72633 -1.78873,2.7039 -1.39355,0.97756 -3.49427,0.97756 z m 2.27751,-7.11333 v 0 q -0.104,-1.01917 -0.54078,-1.59114 -0.57198,-0.75918 -1.77833,-0.75918 -1.15436,0 -1.75754,0.88397 -0.37438,0.56158 -0.54078,1.46635 v 0 z"
     style="font-style:normal;font-variant:normal;font-weight:normal;font-stretch:normal;font-family:Helvetica;-inkscape-font-specification:Helvetica;fill:#8fc640;fill-opacity:1;stroke-width:0.53246"
     id="path1056" /><path
     d="m 215.25313,290.17734 v 0 q -0.0832,-1.09196 -0.95677,-1.72633 -0.87356,-0.64478 -2.27751,-0.64478 -1.21675,0 -1.90313,0.54078 -0.68637,0.53038 -0.68637,1.48714 0,0.68638 0.71757,1.06076 0.70717,0.37439 3.00549,0.88397 3.33827,0.74877 4.46143,1.72634 1.12316,0.96716 1.12316,3.10948 0,2.15272 -1.69514,3.42147 -1.69513,1.25835 -4.58623,1.25835 -2.90149,0 -4.53423,-1.34155 -1.63274,-1.34154 -1.74713,-3.81665 v 0 h 3.07828 v 0 q 0.052,1.21675 0.88397,1.87193 0.83197,0.65517 2.31911,0.65517 1.52875,0 2.38151,-0.48878 0.86317,-0.49918 0.86317,-1.37275 0,-0.86316 -0.61358,-1.26875 -0.60317,-0.40558 -2.5791,-0.84237 -3.63986,-0.81117 -4.86702,-1.75753 -1.21675,-0.93597 -1.21675,-2.92229 0,-2.22552 1.61194,-3.52547 1.61194,-1.31035 4.35744,-1.31035 2.5687,0 4.18064,1.35195 1.61194,1.35195 1.78873,3.65026 v 0 z"
     style="font-style:normal;font-variant:normal;font-weight:normal;font-stretch:normal;font-family:Helvetica;-inkscape-font-specification:Helvetica;fill:#8fc640;fill-opacity:1;stroke-width:0.53246"
     id="path1058" /><path
     d="m 220.86892,289.56376 v 0 h 1.41435 1.42475 v 0 1.67434 0 l 0.19759,-0.28079 q 1.20635,-1.69513 3.18228,-1.69513 2.15272,0 3.45267,1.59114 1.31035,1.59114 1.31035,4.19104 0,2.7559 -1.31035,4.44063 -1.29995,1.68474 -3.45267,1.68474 -1.96553,0 -3.17188,-1.58074 l -0.0624,-0.0832 v 0 5.80298 0 h -1.48714 -1.49755 v 0 z m 5.3662,9.15166 q 1.19596,0 1.87193,-0.89437 0.67598,-0.90476 0.67598,-2.5063 0,-1.63274 -0.67598,-2.54791 -0.66557,-0.92556 -1.86153,-0.92556 -1.19595,0 -1.87193,0.94636 -0.66557,0.94637 -0.66557,2.6311 v 0 0 0 q 0,1.54955 0.66557,2.42311 0.67598,0.87357 1.86153,0.87357 z"
     style="font-style:normal;font-variant:normal;font-weight:normal;font-stretch:normal;font-family:Helvetica;-inkscape-font-specification:Helvetica;fill:#8fc640;fill-opacity:1;stroke-width:0.53246"
     id="path1060" /><path
     d="m 236.65552,301.16973 q -1.57034,0 -2.5271,-0.89437 -0.95677,-0.90476 -0.95677,-2.37111 0,-1.54954 0.86317,-2.47511 0.86317,-0.93596 2.51671,-1.17515 l 1.96552,-0.27039 q 0.76957,-0.104 1.27915,-0.35359 0.2184,-0.10399 0.33279,-0.37438 0.1248,-0.27039 0.0936,-0.55118 -0.0624,-0.47839 -0.48878,-0.74878 -0.50959,-0.32238 -1.46635,-0.32238 -0.85277,0 -1.33115,0.41598 -0.47838,0.41599 -0.50958,1.17516 v 0 h -2.85989 v 0 q 0.0936,-1.98633 1.35195,-2.97429 1.25835,-0.98796 3.69186,-0.98796 2.11112,0 3.32787,0.89436 1.22716,0.88397 1.22716,2.42311 v 6.32296 q 0,0.75918 0.12479,1.07116 0.1248,0.30159 0.49918,0.47839 v 0.0104 0.40558 h -1.61194 -1.61194 v 0 q -0.19759,-0.68637 -0.25999,-1.34155 l -0.0104,-0.0208 q -1.40394,1.66394 -3.63986,1.66394 z m 3.58787,-4.47183 v -1.29995 0 q -0.51998,0.29118 -1.37275,0.46798 l -1.10236,0.20799 q -0.77997,0.14559 -1.18556,0.54078 -0.40558,0.38479 -0.40558,0.97756 0,0.67598 0.36399,1.06076 0.36398,0.38479 1.01916,0.38479 1.43514,0 2.28791,-1.00876 0.1664,-0.1976 0.28079,-0.58238 0.1144,-0.38479 0.1144,-0.74877 z"
     style="font-style:normal;font-variant:normal;font-weight:normal;font-stretch:normal;font-family:Helvetica;-inkscape-font-specification:Helvetica;fill:#8fc640;fill-opacity:1;stroke-width:0.53246"
     id="path1062" /><path
     d="m 255.56201,296.6875 v 0 q -0.22879,2.11112 -1.57034,3.29667 -1.34155,1.18556 -3.49427,1.18556 -2.5687,0 -3.97265,-1.52874 -1.39355,-1.52875 -1.39355,-4.35744 0,-2.7663 1.44555,-4.38864 1.45594,-1.63273 3.92065,-1.63273 2.18392,0 3.57747,1.20635 1.39354,1.20636 1.48714,3.17188 v 0 h -3.03669 v 0 q -0.0416,-0.84237 -0.60317,-1.36235 -0.55118,-0.51998 -1.42475,-0.51998 -1.12316,0 -1.71594,0.90477 -0.58237,0.89436 -0.58237,2.6207 0,1.68474 0.58237,2.5687 0.59278,0.87357 1.71594,0.87357 0.81117,0 1.37275,-0.56158 0.56158,-0.56158 0.65517,-1.47674 v 0 z"
     style="font-style:normal;font-variant:normal;font-weight:normal;font-stretch:normal;font-family:Helvetica;-inkscape-font-specification:Helvetica;fill:#8fc640;fill-opacity:1;stroke-width:0.53246"
     id="path1064" /><path
     d="m 262.11376,301.16973 q -2.5791,0 -3.98305,-1.59114 -1.39355,-1.59114 -1.39355,-4.53423 0,-2.7143 1.42475,-4.24304 1.42475,-1.53914 3.95185,-1.53914 2.58951,0 3.98305,1.57034 1.40395,1.55994 1.40395,4.45103 0.0208,0.33279 -0.052,0.67597 v 0 h -7.70611 v 0 q 0.104,1.34155 0.59278,2.00713 0.62398,0.83197 2.07992,0.83197 0.67598,0 1.24795,-0.38479 0.58238,-0.38478 0.69678,-0.92556 v 0 h 3.03668 v 0 q -0.38478,1.72633 -1.78873,2.7039 -1.39355,0.97756 -3.49427,0.97756 z m 2.27752,-7.11333 v 0 q -0.104,-1.01917 -0.54078,-1.59114 -0.57198,-0.75918 -1.77834,-0.75918 -1.15435,0 -1.75753,0.88397 -0.37439,0.56158 -0.54078,1.46635 v 0 z"
     style="font-style:normal;font-variant:normal;font-weight:normal;font-stretch:normal;font-family:Helvetica;-inkscape-font-specification:Helvetica;fill:#8fc640;fill-opacity:1;stroke-width:0.53246"
     id="path1066" /><path
     d="m 275.65405,290.13574 q 0,-0.88396 -0.50958,-1.42474 -0.50958,-0.55118 -1.35195,-0.55118 -0.97756,0 -1.51834,0.62397 -0.53038,0.61358 -0.55118,1.75754 v 0 h -2.7455 v 0 q 0.0312,-2.31912 1.33115,-3.56707 1.31035,-1.25835 3.68147,-1.25835 2.03832,0 3.33827,1.18555 1.29995,1.18556 1.29995,3.04709 0,1.61194 -1.35195,2.6415 l -0.40558,0.27039 v 0 q 0.51998,0.19759 0.91516,0.51998 1.29995,1.00876 1.29995,3.03669 0,2.23591 -1.41434,3.54626 -1.40395,1.31036 -3.79586,1.31036 -2.46471,0 -3.82706,-1.28956 -1.35195,-1.29995 -1.38315,-3.69186 v 0 h 2.9015 v 0 q 0.0208,1.27915 0.57197,1.95513 0.56158,0.66557 1.61194,0.66557 1.01917,0 1.64314,-0.67597 0.62398,-0.67598 0.62398,-1.77833 0,-0.96717 -0.62398,-1.55995 -0.55118,-0.50958 -1.39355,-0.57197 -0.46798,-0.0312 -0.87356,-0.0312 -0.39519,-0.0104 -0.50958,0.0208 v -2.20472 q 0.12479,0.0208 0.53038,0.0104 0.40558,-0.0208 0.86316,-0.0728 0.70718,-0.0832 1.12316,-0.48878 0.51998,-0.49918 0.51998,-1.42475 z"
     style="font-style:normal;font-variant:normal;font-weight:normal;font-stretch:normal;font-family:Helvetica;-inkscape-font-specification:Helvetica;fill:#8fc640;fill-opacity:1;stroke-width:0.53246"
     id="path1068" /><path
     d="m 281.56104,300.87854 v -15.28743 0 h 1.59114 v 0 h 4.95022 q 3.15108,0 4.78382,1.85113 1.64314,1.85113 1.64314,5.4182 0,3.93105 -1.70554,5.97978 -1.69513,2.03832 -4.98141,2.03832 h -4.69023 v 0 z m 3.19268,-2.6311 v 0 h 2.6935 q 1.94473,0 2.91189,-1.31035 0.97757,-1.32075 0.97757,-3.95185 0,-2.38151 -0.90477,-3.56707 -0.90476,-1.19596 -2.7247,-1.19596 h -2.95349 v 0 z"
     style="font-style:normal;font-variant:normal;font-weight:normal;font-stretch:normal;font-family:Helvetica;-inkscape-font-specification:Helvetica;fill:#8fc640;fill-opacity:1;stroke-width:0.53246"
     id="path1070" /></g></svg>
