<?xml version="1.0" encoding="UTF-8" standalone="no"?>
<svg
   xmlns:dc="http://purl.org/dc/elements/1.1/"
   xmlns:cc="http://creativecommons.org/ns#"
   xmlns:rdf="http://www.w3.org/1999/02/22-rdf-syntax-ns#"
   xmlns:svg="http://www.w3.org/2000/svg"
   xmlns="http://www.w3.org/2000/svg"
   xmlns:sodipodi="http://sodipodi.sourceforge.net/DTD/sodipodi-0.dtd"
   xmlns:inkscape="http://www.inkscape.org/namespaces/inkscape"
   width="336.64"
   height="354.67"
   version="1.1"
   viewBox="0 0 336.64 354.67"
   xml:space="preserve"
   id="svg1023"
   sodipodi:docname="Add and Move.svg"
   inkscape:version="1.0.2 (e86c870, 2021-01-15)"><defs
   id="defs1027" /><sodipodi:namedview
   pagecolor="#ffffff"
   bordercolor="#666666"
   borderopacity="1"
   objecttolerance="10"
   gridtolerance="10"
   guidetolerance="10"
   inkscape:pageopacity="0"
   inkscape:pageshadow="2"
   inkscape:window-width="1536"
   inkscape:window-height="811"
   id="namedview1025"
   showgrid="false"
   inkscape:zoom="1.2739764"
   inkscape:cx="205.51703"
   inkscape:cy="208.08624"
   inkscape:window-x="-8"
   inkscape:window-y="-8"
   inkscape:window-maximized="1"
   inkscape:current-layer="g1021"
   inkscape:document-rotation="0" /><metadata
   id="metadata833"><rdf:RDF><cc:Work
       rdf:about=""><dc:format>image/svg+xml</dc:format><dc:type
         rdf:resource="http://purl.org/dc/dcmitype/StillImage" /><dc:title /></cc:Work></rdf:RDF></metadata>
<style
   type="text/css"
   id="style835">
	.st0{fill:#EF3835;}
	.st1{clip-path:url(#SVGID_2_);}
	.st2{fill:#FFFFFF;}
	.st3{fill:#5E2919;}
	.st4{clip-path:url(#SVGID_4_);}
	.st5{clip-path:url(#SVGID_6_);}
	.st6{opacity:0.5;}
	.st7{enable-background:new    ;}
	.st8{fill:#8DC63F;}
	.st9{fill:#231F20;}
	.st10{fill:#8FC640;}
	.st11{fill:#009444;}
	.st12{fill:#FBB042;}
	.st13{fill:#020202;}
	.st14{fill:#F7D5A9;}
	.st15{fill-rule:evenodd;clip-rule:evenodd;fill:#020202;}
	.st16{fill:#EF4147;}
	.st17{clip-path:url(#SVGID_8_);}
	.st18{fill:#010101;}
	.st19{opacity:0.5;enable-background:new    ;}
	.st20{fill:#51A6DC;}
	.st21{fill:#90CFA6;}
	.st22{fill:#CC8D4E;}
	.st23{fill:#B27945;}
	.st24{fill:#EF4247;}
	.st25{fill-rule:evenodd;clip-rule:evenodd;fill:#010101;}
	.st26{fill:#C3DB72;}
	.st27{fill:#FBB040;}
</style>
<g
   id="g839"><rect
     x="-0.016886"
     y="-0.6983"
     width="336.64001"
     height="354.67001"
     fill="#ffffff"
     fill-rule="evenodd"
     stop-color="#000000"
     stroke-linecap="round"
     stroke-linejoin="round"
     stroke-width="7.8592"
     style="paint-order:fill markers stroke"
     id="rect837" /></g><g
   transform="translate(-103.83,-103.06)"
   id="g1021"><g
     transform="translate(-396.8,-70.205)"
     id="g845"><path
       class="st2"
       d="m 770.6,295.3 c 0,53 -42.9,95.9 -95.9,95.9 -53,0 -95.9,-42.9 -96,-95.9 0,-53 42.9,-95.9 95.9,-95.9 53,-0.1 96,42.8 96,95.9 z"
       id="path841" /><path
       class="st11"
       d="m 674.7,392.7 c -53.7,0 -97.4,-43.7 -97.5,-97.4 0,-53.7 43.7,-97.4 97.4,-97.4 h 0.1 c 26,0 50.4,10.1 68.8,28.5 18.4,18.4 28.6,42.8 28.6,68.9 v 0.1 c 0,53.6 -43.7,97.3 -97.4,97.3 z m 0,-191.8 c -52.1,0 -94.5,42.4 -94.5,94.4 0,52.1 42.4,94.4 94.4,94.4 52.1,0 94.4,-42.4 94.4,-94.5 v -0.1 c 0,-25.2 -9.9,-48.9 -27.7,-66.8 -17.7,-17.6 -41.4,-27.4 -66.6,-27.4 z"
       id="path843" /></g><g
     class="st19"
     transform="translate(-396.8,-70.205)"
     enable-background="new"
     opacity=".5"
     id="g851"><path
       class="st20"
       d="m 554.4,339.7 75.6,-13 c 0.3,0 0.5,-0.2 0.5,-0.5 v -75.6 c 0,-0.3 -0.2,-0.5 -0.5,-0.5 l -75.6,-14 c -0.3,0 -0.5,0.2 -0.5,0.5 v 102.6 c 0,0.2 0.3,0.5 0.5,0.5 z"
       id="path847" /><path
       class="st9"
       d="m 554.5,340.7 c -1,0 -1.7,-0.7 -1.7,-1.6 V 236.6 c 0,-0.9 0.7,-1.6 1.6,-1.6 h 0.2 l 75.5,14 c 0.8,0.1 1.5,0.7 1.5,1.6 v 75.6 c 0,0.8 -0.6,1.5 -1.5,1.6 z M 555,237.3 v 101.2 l 74.4,-12.8 v -74.6 z"
       id="path849" /></g><g
     transform="translate(-396.8,-70.205)"
     id="g865"><path
       class="st21"
       d="m 554.4,339.7 75.6,-13 c 0.3,0 0.5,-0.2 0.5,-0.5 v -75.6 c 0,-0.3 -0.2,-0.5 -0.5,-0.5 l -75.6,-14 c -0.3,0 -0.5,0.2 -0.5,0.5 v 102.6 c 0,0.2 0.3,0.5 0.5,0.5 z"
       id="path853" /><path
       class="st9"
       d="m 554.5,340.7 c -1,0 -1.7,-0.7 -1.7,-1.6 V 236.6 c 0,-0.9 0.7,-1.6 1.6,-1.6 h 0.2 l 75.5,14 c 0.8,0.1 1.5,0.7 1.5,1.6 v 75.6 c 0,0.8 -0.6,1.5 -1.5,1.6 z M 555,237.3 v 101.2 l 74.4,-12.8 v -74.6 z"
       id="path855" /><path
       class="st2"
       d="m 575.2,311.2 34.1,-5.9 c 0.1,0 0.2,-0.1 0.2,-0.2 V 271 c 0,-0.1 -0.1,-0.2 -0.2,-0.2 l -34.1,-6.3 c -0.1,0 -0.2,0.1 -0.2,0.2 V 311 c -0.1,0.1 0,0.2 0.2,0.2 z"
       id="path857" /><path
       class="st9"
       d="M 575.3,312.3 H 575 c -0.3,0 -0.6,-0.2 -0.8,-0.5 -0.2,-0.3 -0.3,-0.6 -0.3,-0.9 v -46.2 c 0,-0.7 0.6,-1.3 1.3,-1.3 h 0.2 l 34.1,6.3 c 0.7,0.1 1.2,0.6 1.2,1.3 v 34.2 c 0,0.7 -0.5,1.2 -1.2,1.3 z m 0.7,-1.4 v 0.1 z m 0,-45.2 V 310 l 32.4,-5.6 v -32.7 z"
       id="path859" /><path
       class="st2"
       d="m 783.5,339.7 -75.6,-13 c -0.3,0 -0.5,-0.2 -0.5,-0.5 v -75.6 c 0,-0.3 0.2,-0.5 0.5,-0.5 l 75.6,-14 c 0.3,0 0.5,0.2 0.5,0.5 v 102.6 c 0,0.2 -0.2,0.5 -0.5,0.5 z"
       id="path861" /><path
       class="st9"
       d="m 783.5,340.7 h -0.2 l -75.5,-13 c -0.8,-0.1 -1.5,-0.7 -1.5,-1.6 v -75.6 c 0,-0.8 0.6,-1.5 1.5,-1.6 l 75.6,-14 h 0.1 c 0.9,0 1.6,0.7 1.6,1.6 v 102.6 c 0,0.9 -0.7,1.6 -1.6,1.6 z m -75,-15 74.4,12.8 V 237.3 l -74.4,13.8 z"
       id="path863" /></g><g
     class="st19"
     transform="translate(-396.8,-70.205)"
     enable-background="new"
     opacity=".5"
     id="g871"><path
       class="st20"
       d="m 783.5,339.7 -75.6,-13 c -0.3,0 -0.5,-0.2 -0.5,-0.5 v -75.6 c 0,-0.3 0.2,-0.5 0.5,-0.5 l 75.6,-14 c 0.3,0 0.5,0.2 0.5,0.5 v 102.6 c 0,0.2 -0.2,0.5 -0.5,0.5 z"
       id="path867" /><path
       class="st9"
       d="m 783.5,340.7 h -0.2 l -75.5,-13 c -0.8,-0.1 -1.5,-0.7 -1.5,-1.6 v -75.6 c 0,-0.8 0.6,-1.5 1.5,-1.6 l 75.6,-14 h 0.1 c 0.9,0 1.6,0.7 1.6,1.6 v 102.6 c 0,0.9 -0.7,1.6 -1.6,1.6 z m -75,-15 74.4,12.8 V 237.3 l -74.4,13.8 z"
       id="path869" /></g><g
     transform="translate(-396.8,-70.205)"
     id="g889"><path
       class="st2"
       d="m 783.5,339.7 -75.6,-13 c -0.3,0 -0.5,-0.2 -0.5,-0.5 v -75.6 c 0,-0.3 0.2,-0.5 0.5,-0.5 l 75.6,-14 c 0.3,0 0.5,0.2 0.5,0.5 v 102.6 c 0,0.2 -0.2,0.5 -0.5,0.5 z"
       id="path873" /><path
       class="st9"
       d="m 783.5,340.7 h -0.2 l -75.5,-13 c -0.8,-0.1 -1.5,-0.7 -1.5,-1.6 v -75.6 c 0,-0.8 0.6,-1.5 1.5,-1.6 l 75.6,-14 h 0.1 c 0.9,0 1.6,0.7 1.6,1.6 v 102.6 c 0,0.9 -0.7,1.6 -1.6,1.6 z m -75,-15 74.4,12.8 V 237.3 l -74.4,13.8 z"
       id="path875" /><path
       class="st21"
       d="M 783.5,338.4 708,325.2 c -0.3,0 -0.5,-0.2 -0.5,-0.5 v -76.6 c 0,-0.3 0.2,-0.5 0.5,-0.5 l 75.6,-14.2 c 0.3,0 0.5,0.2 0.5,0.5 v 104 c 0,0.3 -0.3,0.5 -0.6,0.5 z"
       id="path877" /><path
       class="st9"
       d="m 783.6,339.4 c 0,0 -0.1,0 0,0 h -0.4 l -75.3,-13.1 c -0.8,-0.1 -1.5,-0.7 -1.5,-1.6 v -76.6 c 0,-0.4 0.1,-0.8 0.4,-1.1 0.3,-0.3 0.6,-0.4 1,-0.5 l 75.6,-14.2 h 0.1 c 0.9,0 1.6,0.7 1.6,1.6 V 338 c 0,0.8 -0.7,1.4 -1.5,1.4 z m -75,-15.2 74.4,13 V 234.6 l -74.4,14 z m 0,-76.1 z"
       id="path879" /><path
       class="st2"
       d="m 752.1,334.2 -25.2,-4 c -0.1,0 -0.2,-0.2 -0.2,-0.4 V 267 c 0,-0.2 0.1,-0.4 0.2,-0.4 l 25.2,-3.9 c 0.1,0 0.2,0.2 0.2,0.4 v 70.7 c 0,0.2 -0.1,0.4 -0.2,0.4 z"
       id="path881" /><path
       class="st9"
       d="m 752.1,335.2 h -0.2 l -25.1,-4 c -0.6,-0.1 -1.1,-0.6 -1.1,-1.5 v -62.8 c 0,-0.9 0.5,-1.4 1.1,-1.5 l 25.3,-3.9 c 0.7,0 1.2,0.6 1.2,1.5 v 70.7 c 0,1 -0.6,1.5 -1.2,1.5 z m -24.3,-6 23.3,3.8 v -69.1 l -23.3,3.6 z"
       id="path883" /><ellipse
       class="st2"
       cx="746.5"
       cy="297.89999"
       rx="1.6"
       ry="3.5"
       id="ellipse885" /><path
       class="st9"
       d="m 746.5,302.4 c -1.5,0 -2.7,-1.9 -2.7,-4.5 0,-2.6 1.1,-4.5 2.7,-4.5 1.6,0 2.7,1.9 2.7,4.5 0,2.6 -1.2,4.5 -2.7,4.5 z m 0,-6.7 c -0.2,0.3 -0.5,1.1 -0.5,2.3 0,1.2 0.3,2 0.5,2.3 0.2,-0.3 0.5,-1.1 0.5,-2.3 0,-1.2 -0.3,-2 -0.5,-2.3 z"
       id="path887" /></g><g
     class="st19"
     transform="translate(-396.8,-70.205)"
     enable-background="new"
     opacity=".5"
     id="g895"><path
       class="st20"
       d="m 633.7,250.1 h 70.9 c 1.6,0 2.8,1.3 2.8,2.8 v 70.9 c 0,1.6 -1.3,2.8 -2.8,2.8 h -70.9 c -1.6,0 -2.8,-1.3 -2.8,-2.8 v -70.9 c -0.1,-1.6 1.2,-2.8 2.8,-2.8 z"
       id="path891" /><path
       class="st9"
       d="m 704.6,327.8 h -70.9 c -2.2,0 -3.9,-1.8 -3.9,-3.9 V 253 c 0,-2.2 1.8,-3.9 3.9,-3.9 h 70.9 c 2.2,0 3.9,1.8 3.9,3.9 v 70.9 c 0,2.1 -1.7,3.9 -3.9,3.9 z m -70.9,-76.6 c -1,0 -1.8,0.8 -1.8,1.8 v 70.9 c 0,1 0.8,1.8 1.8,1.8 h 70.9 c 1,0 1.8,-0.8 1.8,-1.8 V 253 c 0,-1 -0.8,-1.8 -1.8,-1.8 z"
       id="path893" /></g><g
     transform="translate(-396.8,-70.205)"
     id="g991"><path
       class="st21"
       d="m 633.7,250.1 h 70.9 c 1.6,0 2.8,1.3 2.8,2.8 v 70.9 c 0,1.6 -1.3,2.8 -2.8,2.8 h -70.9 c -1.6,0 -2.8,-1.3 -2.8,-2.8 v -70.9 c -0.1,-1.6 1.2,-2.8 2.8,-2.8 z"
       id="path897" /><path
       class="st9"
       d="m 704.6,327.8 h -70.9 c -2.2,0 -3.9,-1.8 -3.9,-3.9 V 253 c 0,-2.2 1.8,-3.9 3.9,-3.9 h 70.9 c 2.2,0 3.9,1.8 3.9,3.9 v 70.9 c 0,2.1 -1.7,3.9 -3.9,3.9 z m -70.9,-76.6 c -1,0 -1.8,0.8 -1.8,1.8 v 70.9 c 0,1 0.8,1.8 1.8,1.8 h 70.9 c 1,0 1.8,-0.8 1.8,-1.8 V 253 c 0,-1 -0.8,-1.8 -1.8,-1.8 z"
       id="path899" /><polygon
       class="st2"
       points="707,326.7 783.5,339.7 554.4,339.7 630.8,326.2 "
       id="polygon901" /><path
       class="st9"
       d="M 783.5,340.7 H 554.4 l -0.2,-2.1 76.5,-13.5 h 0.1 l 76.2,0.5 h 0.1 l 76.6,13 z M 566.7,338.6 H 770.8 L 706.9,327.8 631,327.3 Z"
       id="path903" /><polygon
       class="st22"
       points="554.4,339.7 630.8,326.2 648.7,326.7 604,339.7 "
       id="polygon905" /><path
       class="st9"
       d="m 604.2,340.7 h -49.7 l -0.2,-2.1 76.5,-13.5 h 0.1 l 24.8,0.7 z m -37.5,-2.1 h 37.1 l 38,-11 -10.9,-0.3 z"
       id="path907" /><polygon
       class="st23"
       points="781.8,339.7 705.3,326.2 687.5,326.7 732.2,339.7 "
       id="polygon909" /><path
       class="st9"
       d="M 781.8,340.7 H 732 l -51.3,-14.9 24.9,-0.7 h 0.1 l 76.4,13.5 z m -49.4,-2.1 h 37.1 l -64.2,-11.3 -10.9,0.3 z"
       id="path911" /><polygon
       class="st22"
       points="728.5,339.7 689.2,326.7 669,326.7 669,339.7 "
       id="polygon913" /><path
       class="st9"
       d="m 735.1,340.7 h -67.2 v -15.1 h 21.5 l 0.2,0.1 z m -65,-2.1 h 51.7 l -32.7,-10.8 h -19 z"
       id="path915" /><polygon
       class="st23"
       points="607.5,339.7 646.8,326.7 667,326.7 667,339.7 "
       id="polygon917" /><path
       class="st9"
       d="m 668.1,340.7 h -67.2 l 45.7,-15.1 h 21.5 z m -53.9,-2.1 h 51.7 v -10.8 h -19 z"
       id="path919" /><polygon
       class="st18"
       points="648.8,326.8 645.2,326.8 645.2,322 650.1,322 "
       id="polygon921" /><path
       class="st2"
       d="M 648.8,326.9 H 645 V 322 h 5.1 v 0.1 z m -3.5,-0.2 h 3.4 l 1.3,-4.6 h -4.7 z"
       id="path923" /><polygon
       class="st18"
       points="687.6,326.8 691.2,326.8 691.2,322 686.3,322 "
       id="polygon925" /><path
       class="st2"
       d="m 691.3,326.9 h -3.8 v -0.1 l -1.4,-4.9 h 5.1 v 5 z m -3.6,-0.2 h 3.4 v -4.6 h -4.7 z"
       id="path927" /><path
       class="st24"
       d="m 651.7,289.5 32.8,-0.6 2.2,0.6 3.8,4.1 0.5,6 v 1.4 l 1.4,0.5 2.5,2 -0.4,6 0.4,12.1 -8.8,0.3 h -44.8 l 0.3,-11.7 c 0,0 0.2,-6.9 0.3,-7 0.1,-0.1 1.5,-1.9 1.5,-1.9 l 2.5,-0.1 -0.5,-4.1 0.8,-3.9 1.5,-1.6 2.2,-1.3 z"
       id="path929" /><path
       class="st18"
       d="m 691.9,300.3 v -3.8 c 0,-4.9 -3.9,-8.9 -8.8,-8.9 h -30 c -4.9,0 -8.8,4 -8.8,8.9 v 3.8 c -2.2,0.3 -3.8,2.2 -3.8,4.4 v 17.1 c 0,0.5 0.4,0.9 1,1 h 2.8 v 3.8 c 0,0.5 0.5,1 1,1 h 3.6 c 0.5,0 0.9,-0.3 1,-0.8 l 0.8,-4 h 34.9 l 0.8,4 c 0.1,0.5 0.5,0.8 1,0.8 h 3.6 c 0.5,0 0.9,-0.4 1,-0.9 v -3.9 h 2.8 c 0.5,0 1,-0.4 1,-1 v -17.1 c 0,-2.2 -1.7,-4.1 -3.9,-4.4 z m -38.7,-10.8 h 30 c 3.8,0.1 6.9,3.2 6.9,7 v 4 c -1.9,0.6 -3.2,2.3 -3.2,4.3 v 3 c -0.7,-0.6 -1.5,-0.9 -2.4,-0.9 h -13.6 c -1.3,1.5 -3.6,1.7 -5.1,0.4 -0.1,-0.1 -0.3,-0.2 -0.4,-0.4 h -13.5 c -0.9,0 -1.7,0.3 -2.4,0.9 v -3 c 0,-2 -1.3,-3.7 -3.2,-4.3 v -4 c 0,-3.8 3.1,-6.9 6.9,-7 z m -3.1,22.4 v -1.4 c 0,-1 0.8,-1.8 1.8,-1.8 h 13.5 c 1,0 1.8,0.8 1.8,1.8 v 1.4 c 0,1 -0.8,1.8 -1.8,1.8 h -13.5 c -1,0 -1.8,-0.8 -1.8,-1.8 z m 19,0 v -1.4 c 0,-1 0.8,-1.8 1.8,-1.8 h 13.5 c 1,0 1.8,0.8 1.8,1.8 v 1.4 c 0,1 -0.8,1.8 -1.8,1.8 h -13.5 c -1,0 -1.8,-0.8 -1.8,-1.8 z m -20.9,13.7 h -1.9 v -2.9 h 2.5 z m 41.8,0 h -1.9 l -0.6,-2.9 h 2.5 z m 3.8,-4.7 h -51.3 v -16.2 c 0,-1.4 1.1,-2.5 2.6,-2.5 1.4,0 2.5,1.1 2.5,2.5 v 9.9 c 0,0.5 0.4,1 0.9,1 h 0.1 39.2 c 0.6,0 1,-0.4 1,-1 v -9.9 c 0,-1.4 1.1,-2.5 2.6,-2.5 1.4,0 2.5,1.1 2.5,2.5 z"
       id="path931" /><path
       class="st18"
       d="m 668.2,303.6 c 0.5,0 1,-0.4 1,-1 v -10.1 c -0.2,-0.5 -0.7,-0.8 -1.3,-0.6 -0.3,0.1 -0.5,0.3 -0.6,0.6 v 10.1 c -0.1,0.6 0.3,1 0.9,1 z"
       id="path933" /><polygon
       class="st2"
       points="615,240.8 634.4,240.8 637.3,259.9 612.2,259.9 "
       id="polygon935" /><path
       class="st18"
       d="m 638.7,261.1 h -28 l 3.2,-21.6 h 21.6 z m -25.1,-2.5 h 22.2 L 633.3,242 H 616 Z"
       id="path937" /><rect
       class="st18"
       x="623.5"
       y="259.89999"
       width="2.5"
       height="28.1"
       id="rect939" /><polyline
       class="st2"
       points="612.2 288.3 615.7 288.3 637.3 288.3"
       id="polyline941" /><rect
       class="st18"
       x="612.20001"
       y="287.10001"
       width="25.1"
       height="2.5"
       id="rect943" /><path
       class="st18"
       d="m 615,240.9 c -0.7,0 -1.2,-0.6 -1.2,-1.2 v -5.1 c 0,-0.7 0.6,-1.2 1.2,-1.2 0.6,0 1.2,0.6 1.2,1.2 v 5.1 c 0,0.7 -0.5,1.2 -1.2,1.2 z"
       id="path945" /><path
       class="st18"
       d="m 618.6,240.9 c -0.7,0 -1.2,-0.6 -1.2,-1.2 v -8.9 c 0,-0.7 0.6,-1.2 1.2,-1.2 0.6,0 1.2,0.6 1.2,1.2 v 8.9 c 0,0.7 -0.5,1.2 -1.2,1.2 z"
       id="path947" /><path
       class="st18"
       d="m 629.8,240.9 c -0.7,0 -1.2,-0.6 -1.2,-1.2 v -8.9 c 0,-0.7 0.6,-1.2 1.2,-1.2 0.6,0 1.2,0.6 1.2,1.2 v 8.9 c 0,0.7 -0.5,1.2 -1.2,1.2 z"
       id="path949" /><path
       class="st18"
       d="m 634.4,240.9 c -0.7,0 -1.2,-0.6 -1.2,-1.2 v -4.4 c 0,-0.7 0.6,-1.2 1.2,-1.2 0.6,0 1.2,0.6 1.2,1.2 v 4.4 c 0.1,0.7 -0.5,1.2 -1.2,1.2 z"
       id="path951" /><path
       class="st18"
       d="m 634.4,231.4 c -0.7,0 -1.2,-0.6 -1.2,-1.2 V 229 c 0,-0.7 0.6,-1.2 1.2,-1.2 0.6,0 1.2,0.6 1.2,1.2 v 1.2 c 0.1,0.6 -0.5,1.2 -1.2,1.2 z"
       id="path953" /><path
       class="st18"
       d="m 624.9,240.9 c -0.7,0 -1.2,-0.6 -1.2,-1.2 v -15.1 c 0,-0.7 0.6,-1.2 1.2,-1.2 0.6,0 1.2,0.6 1.2,1.2 v 15.1 c 0,0.7 -0.5,1.2 -1.2,1.2 z"
       id="path955" /><path
       class="st18"
       d="m 706.8,325.7 h -3 c -0.6,0 -1,-0.4 -1,-1 0,-0.6 0.4,-1 1,-1 h 3 c 0.6,0 1,0.4 1,1 0,0.6 -0.5,1 -1,1 z"
       id="path957" /><path
       class="st18"
       d="m 706.8,323.6 h -5.2 c -0.6,0 -1,-0.4 -1,-1 0,-0.6 0.4,-1 1,-1 h 5.2 c 0.6,0 1,0.4 1,1 0,0.6 -0.5,1 -1,1 z"
       id="path959" /><path
       class="st18"
       d="m 706.8,317.1 h -5.2 c -0.6,0 -1,-0.4 -1,-1 0,-0.6 0.4,-1 1,-1 h 5.2 c 0.6,0 1,0.4 1,1 0,0.6 -0.5,1 -1,1 z"
       id="path961" /><path
       class="st18"
       d="m 706.8,314.4 h -2.6 c -0.6,0 -1,-0.4 -1,-1 0,-0.6 0.4,-1 1,-1 h 2.6 c 0.6,0 1,0.4 1,1 0,0.6 -0.5,1 -1,1 z"
       id="path963" /><path
       class="st18"
       d="m 701.2,314.4 h -0.7 c -0.6,0 -1,-0.4 -1,-1 0,-0.6 0.4,-1 1,-1 h 0.7 c 0.6,0 1,0.4 1,1 0,0.6 -0.5,1 -1,1 z"
       id="path965" /><path
       class="st18"
       d="M 706.8,320 H 698 c -0.6,0 -1,-0.4 -1,-1 0,-0.6 0.4,-1 1,-1 h 8.8 c 0.6,0 1,0.4 1,1 0,0.6 -0.5,1 -1,1 z"
       id="path967" /><polyline
       class="st2"
       points="708.8 327.4 723.1 327.4 725.4 316.3 706.2 316.3"
       id="polyline969" /><polygon
       class="st2"
       points="726.7,311.7 726.7,316.3 706.2,316.3 704.8,316.3 704.8,311.7 "
       id="polygon971" /><path
       class="st25"
       d="m 721.1,307.6 c -0.2,-0.1 -0.3,-0.2 -0.5,-0.3 -0.3,-0.2 -0.5,-0.4 -0.8,-0.6 0.3,0.2 0.6,0.4 0.8,0.6 0.2,0.1 0.3,0.2 0.5,0.3 z"
       id="path973" /><path
       class="st25"
       d="m 719.8,312.9 c -0.6,0.8 -1.7,0.7 -4,2.1 -0.9,0.4 -3.5,-2.2 -3.6,-2.3 -0.2,-0.9 1.8,-1.6 1.4,-2.4 -1,0.1 -1.5,1.4 -2,1.8 -0.3,-0.4 -1,-0.8 -1.3,-1.3 -0.7,-1.1 2.9,-3 2.2,-3.4 -0.7,-0.4 -2.6,1.5 -3,1.8 -1.7,-2.9 -0.8,-6.6 1.5,-6.8 0.7,-0.4 1.4,-0.7 1.2,-1 -0.5,-0.5 -2.9,0.9 -3.4,1.2 -1.2,-4.2 7.2,-8.9 8.4,-4.4 5.7,-2.4 9.2,4.9 6.2,6.3 -0.4,-1.2 -3.3,-3.4 -4.3,-3.2 -0.1,0.2 6.5,4.9 3.6,7.2 -1.3,-1.1 -2.6,-2 -4,-2.9 0.8,2.1 3.3,2.2 3.8,3.9 0.3,1 -0.7,1.8 -1.3,2.6 -1.2,-2.2 -4.3,-3.8 -3.8,-2.8 0.4,0.7 3.7,2.2 2.4,3.6 z"
       id="path975" /><path
       class="st25"
       d="m 727.2,311 c 0.6,0.6 1.2,0.3 2.9,1.3 0.7,0.2 1.4,-2.7 1.3,-2.9 -0.1,-0.9 -1.5,-1.3 -1.5,-2 0.6,-0.1 1.3,1 1.7,1.3 0.2,-0.5 0.3,-0.9 0.4,-1.4 0.1,-1.2 -2.5,-2.4 -2.2,-2.8 0.3,-0.4 1.9,0.9 2.2,1.2 0.2,-3 -1.4,-6.5 -2.8,-6.2 -0.5,-0.2 -1,-0.5 -1,-0.7 0.2,-0.6 1.9,0.3 2.2,0.4 -0.3,-1.6 -1.2,-3 -2.5,-4 -0.6,0.2 -1.2,0.3 -1.8,0.3 l -0.1,0.4 c -0.2,0.6 -0.7,1.1 -1.3,1.4 -0.7,0.4 -1.5,0.6 -2.3,0.7 -0.1,0.1 -0.2,0.1 -0.4,0.1 0.5,0.3 1,0.7 1.4,1.1 0.2,0.2 0.4,0.4 0.5,0.7 0,0 0.1,-0.1 0.2,-0.1 0,0.1 -0.1,0.2 -0.1,0.2 0.3,0.5 0.5,1 0.7,1.6 0.2,0.8 0.1,1.6 -0.4,2.3 -0.2,0.3 -0.5,0.6 -0.8,0.7 l -0.3,0.1 -0.1,-0.2 c 0,0.2 0,0.5 0.1,0.7 0.3,0.5 0.4,1.1 0.5,1.6 0.1,0.2 0.3,0.3 0.4,0.4 0.4,-1.2 0.9,-2.4 1.5,-3.5 0.1,2.1 -1.3,2.6 -1,4.4 0.2,0.9 0.7,1.7 1.5,2.2 0.1,-2.3 1.3,-4.4 1.4,-3.3 0,0.8 -1.4,3 -0.3,4 z m -5,-7.7 c 0.1,0.1 0.2,0.1 0.2,0.2 0,0.1 -0.2,-0.1 -0.2,-0.2 z"
       id="path977" /><path
       class="st25"
       d="m 732.4,290.6 c 0.5,-0.7 0.2,-1.2 1,-3 0.1,-0.6 -2.9,-1 -3,-0.9 -0.8,0.2 -1,1.6 -1.8,1.7 -0.2,-0.6 0.8,-1.4 1.1,-1.8 -0.4,0 -1,-0.2 -1.5,-0.2 -1.2,0.1 -2.1,2.8 -2.5,2.6 -0.4,-0.2 0.7,-2 0.9,-2.4 -3,0.2 -6.2,2.2 -5.8,3.6 -0.2,0.6 -0.4,1.1 -0.5,1 -0.6,-0.1 0.1,-1.9 0.2,-2.3 -3.9,1 -6.1,6.8 -2.7,6.5 -0.2,0.5 -0.4,1.2 -0.7,1.8 0.2,0.2 0.3,0.5 0.4,0.8 0.1,-0.1 0.2,-0.1 0.3,-0.1 0.2,-0.7 0.4,-1.3 0.7,-2 0,0.7 0.4,1.4 1.1,1.7 0.4,0 0.9,0 1.3,0.1 0.2,0.1 0.5,0.2 0.7,0.2 1.9,0 4,-0.9 4.2,-2 -1.2,0.2 -3.8,-0.4 -3.9,-1 0.1,-0.1 6.1,1.5 7.4,-1 -1.2,-0.2 -2.4,-0.6 -3.6,-1 2.1,-0.4 2.8,0.9 4.4,0.5 0.8,-0.4 1.5,-1 2,-1.8 -2.2,0.2 -4.6,-0.8 -3.5,-0.9 0.6,0 2.8,1.1 3.8,-0.1 z"
       id="path979" /><path
       class="st25"
       d="m 700.2,307.9 c -1,0.4 -1.6,-0.2 -4.3,-0.1 -0.9,-0.1 -1,-3.2 -0.9,-3.3 0.5,-0.9 2.5,-0.5 2.7,-1.2 -0.8,-0.4 -2.1,0.4 -2.7,0.4 0.1,-0.4 -0.1,-1 0,-1.5 0.3,-1.1 4.2,-1 4,-1.5 -0.2,-0.5 -2.9,-0.1 -3.4,0.1 0.8,-2.9 4.1,-5.4 5.9,-4.5 0.8,0.1 1.5,0.1 1.5,-0.2 -0.1,-0.6 -2.7,-0.6 -3.2,-0.6 2.2,-3.7 11.4,-3.6 9.1,0.3 1.1,0 2.2,0.6 2.9,1.5 -0.3,0.1 -0.5,0.3 -0.7,0.5 -1,0.7 -1.7,1.6 -2.1,2.7 -0.2,-0.8 -0.5,-1.5 -0.8,-1.6 -0.2,0.1 1,6.6 -2.6,7.1 -0.2,-1.4 -0.4,-2.7 -0.8,-4 -0.9,2 0.8,3 -0.1,4.6 -0.5,0.9 -1.8,1.1 -2.8,1.4 0.7,-2.2 -0.3,-4.8 -0.7,-3.8 -0.4,0.5 0.9,3.2 -1,3.7 z"
       id="path981" /><path
       class="st25"
       d="m 703.2,281.8 c -0.2,-1 0.5,-1.6 0.8,-4.5 0.2,-1 3.3,-0.7 3.5,-0.6 0.7,0.5 0.1,2.6 0.8,2.8 0.5,-0.7 -0.1,-2.1 -0.1,-2.8 0.4,0.1 1,0 1.5,0.2 1,0.4 0.4,4.4 0.9,4.2 0.5,-0.2 0.5,-2.9 0.5,-3.5 2.8,1 4.8,4.6 3.6,6.5 -0.2,0.9 -0.3,1.5 -0.1,1.5 0.6,0 1,-2.7 1.1,-3.2 3.2,2.4 2.1,11.1 -1.2,9.6 0.6,1.4 1.1,2.9 1.5,4.4 -0.3,-0.1 -0.7,-0.2 -1,-0.2 -0.3,-1.3 -0.7,-2.6 -1.2,-3.8 -0.5,1.8 -2.4,2.9 -4.3,2.4 0,-0.3 0,-0.6 -0.1,-0.9 -0.5,-0.8 -1.4,-1.3 -2.4,-1.4 h -0.2 c -0.2,-0.5 -0.2,-1 -0.1,-1.5 0.9,0.7 4,0.4 4.3,-0.4 -0.1,-0.2 -6.7,0.5 -6.6,-3.3 1.4,-0.1 2.7,-0.2 4.1,-0.5 -1.8,-1 -3.2,0.6 -4.6,-0.4 -0.9,-0.6 -0.8,-2 -0.9,-3 2.1,0.9 4.9,0.1 3.9,-0.4 -0.6,-0.3 -3.5,0.7 -3.7,-1.2 z"
       id="path983" /><path
       class="st25"
       d="m 712.8,311.2 h -0.1 c -0.1,0.2 -0.3,0.3 -0.4,0.5 -0.1,0.2 -0.2,0.3 -0.3,0.4 h 0.1 c 0.1,-0.3 0.4,-0.6 0.7,-0.9 z"
       id="path985" /><path
       class="st25"
       d="M 720.2,311.2 H 720 c 0.3,0.2 0.4,0.6 0.4,0.9 h 0.5 c -0.2,-0.3 -0.4,-0.6 -0.6,-0.8 z"
       id="path987" /><path
       class="st25"
       d="m 725.7,316.7 h 0.2 c 0.7,0 1.2,-0.6 1.2,-1.3 v -3 c 0,-0.7 -0.5,-1.2 -1.2,-1.2 h -3.4 l -0.4,0.4 c -0.1,0.1 -0.2,0.3 -0.4,0.5 h 4.2 c 0.2,0 0.3,0.1 0.4,0.3 v 3 c 0,0.2 -0.2,0.4 -0.4,0.4 h -20.1 c -0.2,0 -0.4,-0.2 -0.4,-0.4 v -3 c 0,-0.2 0.2,-0.3 0.4,-0.3 h 5.6 c -0.1,-0.1 -0.1,-0.2 -0.2,-0.2 -0.1,-0.1 -0.2,-0.2 -0.4,-0.3 -0.2,-0.1 -0.3,-0.2 -0.4,-0.4 h -4.6 c -0.7,0 -1.3,0.5 -1.3,1.2 v 3 c 0,0.7 0.6,1.3 1.3,1.3 h 0.1 l 2.3,11 h 15.2 z m -0.9,0 -2.1,10.2 h -13.8 l -2.1,-10.2 z"
       id="path989" /></g><g
     class="st6"
     transform="translate(-466.8,-70.205)"
     opacity=".5"
     id="g997"><g
       class="st7"
       id="g995"><path
         class="st11"
         d="m 633.1,491.4 c -1.2,2.7 -2.8,4.9 -4.9,6.6 -2.1,1.8 -4.5,3.1 -7.2,4 -2.7,0.9 -5.6,1.3 -8.7,1.3 -2.9,0 -5.8,-0.4 -8.4,-1.2 -2.7,-0.8 -5.1,-2.1 -7.2,-3.8 -2.1,-1.7 -3.8,-3.9 -5,-6.5 -1.3,-2.6 -1.9,-5.8 -2,-9.6 h 13 c 0.1,1.6 0.4,3 0.9,4.2 0.5,1.2 1.2,2.1 2.1,2.9 0.9,0.8 1.9,1.3 3,1.7 1.2,0.4 2.4,0.6 3.6,0.6 2.8,0 5.1,-0.9 6.9,-2.6 1.8,-1.7 2.7,-4.1 2.7,-7.3 0,-3 -0.9,-5.4 -2.6,-7.2 -1.7,-1.8 -4.2,-2.6 -7.4,-2.6 H 610 v -11.3 h 1.9 c 3.2,0 5.5,-0.9 6.9,-2.6 1.4,-1.7 2.1,-3.8 2.1,-6.3 0,-3 -0.9,-5.3 -2.6,-6.8 -1.7,-1.5 -3.8,-2.3 -6.1,-2.3 -2.5,0 -4.5,0.8 -6.2,2.2 -1.6,1.5 -2.5,3.6 -2.6,6.3 h -13 c 0.1,-3.2 0.7,-6 1.8,-8.5 1.2,-2.5 2.7,-4.6 4.7,-6.4 1.9,-1.7 4.2,-3.1 6.8,-4 2.6,-0.9 5.5,-1.4 8.5,-1.4 3.1,0 6,0.5 8.7,1.5 2.7,1 5,2.4 6.9,4.2 1.9,1.8 3.5,3.9 4.5,6.4 1,2.5 1.6,5.2 1.6,8.2 0,3.9 -0.8,7 -2.4,9.2 -1.6,2.3 -3.5,4.1 -5.9,5.4 2.5,1.3 4.7,3.3 6.5,5.8 1.8,2.6 2.7,6 2.7,10.4 0.1,3.7 -0.5,6.8 -1.7,9.5 z"
         id="path993" /></g></g></g>
<g
   aria-label="Design your eSpace3D"
   id="text1008"
   style="font-size:21.2984px;line-height:1.25;font-family:NokiaKokia;-inkscape-font-specification:NokiaKokia;letter-spacing:0px;word-spacing:0px;fill:#3d8f59;fill-opacity:1;stroke-width:0.53246"
   transform="translate(4,-2)"><path
     d="m 70.110079,301.11105 v -15.28742 0 h 1.59114 v 0 h 4.950214 q 3.151082,0 4.783821,1.85113 1.643138,1.85113 1.643138,5.41819 0,3.93106 -1.705536,5.97978 -1.695136,2.03832 -4.981413,2.03832 h -4.690224 v 0 z m 3.19268,-2.6311 v 0 h 2.693499 q 1.944727,0 2.911891,-1.31035 0.977563,-1.32075 0.977563,-3.95185 0,-2.38151 -0.904766,-3.56707 -0.904766,-1.19595 -2.724698,-1.19595 h -2.953489 v 0 z"
     style="font-style:normal;font-variant:normal;font-weight:normal;font-stretch:normal;font-family:Helvetica;-inkscape-font-specification:Helvetica;fill:#3d8f59;fill-opacity:1;stroke-width:0.53246"
     id="path1041" /><path
     d="m 89.734142,301.40224 q -2.579103,0 -3.983051,-1.59114 -1.393547,-1.59114 -1.393547,-4.53423 0,-2.7143 1.424746,-4.24304 1.424747,-1.53914 3.951852,-1.53914 2.589503,0 3.983051,1.57034 1.403947,1.55994 1.403947,4.45103 0.0208,0.33279 -0.052,0.67598 v 0 h -7.706111 v 0 q 0.103996,1.34155 0.592778,2.00712 0.623976,0.83197 2.079922,0.83197 0.675974,0 1.247953,-0.38478 0.582378,-0.38479 0.696774,-0.92557 v 0 h 3.036686 v 0 q -0.384786,1.72634 -1.788733,2.7039 -1.393548,0.97756 -3.494269,0.97756 z m 2.277514,-7.11333 v 0 q -0.103996,-1.01916 -0.540779,-1.59114 -0.571979,-0.75917 -1.778333,-0.75917 -1.154357,0 -1.757535,0.88396 -0.374386,0.56158 -0.540779,1.46635 v 0 z"
     style="font-style:normal;font-variant:normal;font-weight:normal;font-stretch:normal;font-family:Helvetica;-inkscape-font-specification:Helvetica;fill:#3d8f59;fill-opacity:1;stroke-width:0.53246"
     id="path1043" /><path
     d="m 103.50322,293.18655 v 0 q 0,-0.65517 -0.54078,-1.05036 -0.54077,-0.39518 -1.43514,-0.39518 -0.86317,0 -1.35195,0.30158 -0.478383,0.29119 -0.478383,0.82157 0,0.37439 0.551183,0.64478 0.54078,0.25999 1.92392,0.57198 2.7455,0.61357 3.67107,1.34155 0.92556,0.72797 0.92556,2.28791 0,1.66394 -1.35195,2.6831 -1.34155,1.00876 -3.54626,1.00876 -2.610306,0 -4.024653,-0.99836 -1.403948,-0.99836 -1.497544,-2.91189 v 0 h 3.036686 v 0 q 0.0312,0.77997 0.686371,1.22715 0.66558,0.43679 1.79914,0.43679 0.89436,0 1.39354,-0.30159 0.50958,-0.31199 0.50958,-0.86317 0,-0.38479 -0.48878,-0.65517 -0.48878,-0.26 -1.71593,-0.53038 -2.870295,-0.64478 -3.837459,-1.36235 -0.967164,-0.70718 -0.967164,-2.19432 0,-1.68474 1.247954,-2.7143 1.258352,-1.03996 3.307079,-1.03996 2.30871,0 3.72306,1.01916 1.41434,1.00876 1.41434,2.6727 v 0 z"
     style="font-style:normal;font-variant:normal;font-weight:normal;font-stretch:normal;font-family:Helvetica;-inkscape-font-specification:Helvetica;fill:#3d8f59;fill-opacity:1;stroke-width:0.53246"
     id="path1045" /><path
     d="m 109.05662,301.11105 v -11.31477 0 h 1.48714 1.49755 v 0 11.31477 0 h -1.48715 z m -0.0312,-15.40182 h 3.03669 v 2.7663 h -3.03669 z"
     style="font-style:normal;font-variant:normal;font-weight:normal;font-stretch:normal;font-family:Helvetica;-inkscape-font-specification:Helvetica;fill:#3d8f59;fill-opacity:1;stroke-width:0.53246"
     id="path1047" /><path
     d="m 119.96581,303.46137 q 1.25835,0 1.80953,-0.61358 0.55118,-0.60318 0.55118,-2.00713 v -1.39354 0 l -0.23919,0.36398 q -0.98796,1.36235 -2.83909,1.36235 -2.20472,0 -3.56707,-1.58074 -1.35195,-1.59114 -1.35195,-4.19104 0,-2.6623 1.32075,-4.28464 1.32075,-1.62234 3.47347,-1.62234 1.90313,0 2.95349,1.38315 0.19759,0.25999 0.36399,0.57198 v 0 -1.65354 0 h 2.80789 v 10.7116 q 0,2.6831 -1.33115,3.95185 -1.32075,1.27915 -4.12864,1.27915 -2.30872,0 -3.67107,-0.90477 -1.36235,-0.89436 -1.45594,-2.4855 v 0 h 3.24468 v 0 q 0.0416,0.58238 0.53038,0.84237 0.49918,0.27039 1.52874,0.27039 z m -0.0936,-11.38758 q -1.16475,0 -1.81993,0.89437 -0.65518,0.88397 -0.65518,2.46471 0,1.54954 0.65518,2.42311 0.65518,0.86316 1.80953,0.86316 1.17516,0 1.83033,-0.88396 0.66558,-0.88397 0.66558,-2.44391 0,-1.55994 -0.66558,-2.43351 -0.65517,-0.88397 -1.81993,-0.88397 z"
     style="font-style:normal;font-variant:normal;font-weight:normal;font-stretch:normal;font-family:Helvetica;-inkscape-font-specification:Helvetica;fill:#3d8f59;fill-opacity:1;stroke-width:0.53246"
     id="path1049" /><path
     d="m 127.86951,301.11105 v -11.31477 0 h 1.41435 1.42474 v 0 1.67434 0 0 q 0.1768,-0.30159 0.38479,-0.57198 1.10236,-1.40395 3.20308,-1.40395 1.78873,0 2.79749,1.06076 1.01917,1.06076 1.01917,2.94309 v 7.61251 0 h -1.48715 -1.49754 v 0 -7.07173 q 0,-1.05036 -0.45758,-1.54954 -0.44719,-0.50958 -1.38315,-0.50958 -1.17516,0 -1.80953,0.70717 -0.62398,0.70717 -0.62398,2.03832 v 0 6.38536 0 h -1.48715 z"
     style="font-style:normal;font-variant:normal;font-weight:normal;font-stretch:normal;font-family:Helvetica;-inkscape-font-specification:Helvetica;fill:#3d8f59;fill-opacity:1;stroke-width:0.53246"
     id="path1051" /><path
     d="m 156.89482,289.79628 -4.05585,11.55396 q -0.97756,2.8599 -1.67434,3.58787 -0.69677,0.72797 -2.4855,0.72797 l -1.42475,-0.0312 v -2.39191 q 0.104,0.0416 0.57198,0.0416 1.19596,0 1.55994,-0.48878 0.22879,-0.31199 0.45758,-1.28955 v 0 l -4.22224,-11.70996 v 0 h 1.64314 1.65354 v 0 l 2.46471,8.39248 v 0 0 l 2.39191,-8.39248 v 0 h 1.55994 z"
     style="font-style:normal;font-variant:normal;font-weight:normal;font-stretch:normal;font-family:Helvetica;-inkscape-font-specification:Helvetica;fill:#3d8f59;fill-opacity:1;stroke-width:0.53246"
     id="path1053" /><path
     d="m 163.76897,301.40224 q -2.6519,0 -4.22224,-1.59114 -1.55995,-1.59114 -1.55995,-4.29504 0,-2.76629 1.55995,-4.38863 1.57034,-1.63274 4.22224,-1.63274 2.6727,0 4.23264,1.63274 1.55994,1.62234 1.55994,4.38863 0,2.7039 -1.55994,4.29504 -1.55994,1.59114 -4.23264,1.59114 z m 0,-2.4959 q 1.33115,0 2.02792,-0.87357 0.69678,-0.87357 0.69678,-2.54791 0,-1.71593 -0.69678,-2.5999 -0.69677,-0.89436 -2.02792,-0.89436 -1.33115,0 -2.02793,0.89436 -0.68637,0.88397 -0.68637,2.5999 0,1.67434 0.68637,2.54791 0.69678,0.87357 2.02793,0.87357 z"
     style="font-style:normal;font-variant:normal;font-weight:normal;font-stretch:normal;font-family:Helvetica;-inkscape-font-specification:Helvetica;fill:#3d8f59;fill-opacity:1;stroke-width:0.53246"
     id="path1055" /><path
     d="m 174.65736,289.79628 v 7.08213 q 0,1.03996 0.44718,1.53914 0.44718,0.49919 1.37275,0.49919 1.16476,0 1.78873,-0.70718 0.62398,-0.70717 0.62398,-2.03832 v 0 -6.37496 0 h 1.48714 1.49755 v 0 11.31477 0 h -1.41435 -1.42475 v 0 -1.69513 0 0 q -0.15599,0.31199 -0.37438,0.58238 -1.10236,1.40394 -3.19268,1.40394 -1.78874,0 -2.7975,-1.05036 -0.99836,-1.06076 -0.99836,-2.93269 v -7.62291 0 h 1.48714 z"
     style="font-style:normal;font-variant:normal;font-weight:normal;font-stretch:normal;font-family:Helvetica;-inkscape-font-specification:Helvetica;fill:#3d8f59;fill-opacity:1;stroke-width:0.53246"
     id="path1057" /><path
     d="m 184.64098,301.11105 v -11.31477 0 h 1.41435 1.42475 v 0 2.02792 0 0 q 0.15599,-0.33279 0.35358,-0.64477 1.05036,-1.68474 2.7143,-1.68474 l 0.67598,0.0104 v 3.04708 q -0.39519,-0.0416 -0.89437,-0.0416 -1.36235,0 -2.03832,0.67597 -0.66558,0.67598 -0.66558,2.04872 v 0 5.87578 0 h -1.48714 -1.49755 z"
     style="font-style:normal;font-variant:normal;font-weight:normal;font-stretch:normal;font-family:Helvetica;-inkscape-font-specification:Helvetica;fill:#3d8f59;fill-opacity:1;stroke-width:0.53246"
     id="path1059" /><path
     d="m 203.34988,301.40224 q -2.5791,0 -3.98305,-1.59114 -1.39354,-1.59114 -1.39354,-4.53423 0,-2.7143 1.42474,-4.24304 1.42475,-1.53914 3.95185,-1.53914 2.58951,0 3.98306,1.57034 1.40394,1.55994 1.40394,4.45103 0.0208,0.33279 -0.052,0.67598 v 0 h -7.70611 v 0 q 0.104,1.34155 0.59278,2.00712 0.62398,0.83197 2.07992,0.83197 0.67598,0 1.24796,-0.38478 0.58237,-0.38479 0.69677,-0.92557 v 0 h 3.03669 v 0 q -0.38479,1.72634 -1.78874,2.7039 -1.39354,0.97756 -3.49427,0.97756 z m 2.27752,-7.11333 v 0 q -0.104,-1.01916 -0.54078,-1.59114 -0.57198,-0.75917 -1.77833,-0.75917 -1.15436,0 -1.75754,0.88396 -0.37438,0.56158 -0.54078,1.46635 v 0 z"
     style="font-style:normal;font-variant:normal;font-weight:normal;font-stretch:normal;font-family:Helvetica;-inkscape-font-specification:Helvetica;fill:#3d8f59;fill-opacity:1;stroke-width:0.53246"
     id="path1061" /><path
     d="m 219.24049,290.40985 v 0 q -0.0832,-1.09195 -0.95677,-1.72633 -0.87356,-0.64478 -2.27751,-0.64478 -1.21676,0 -1.90313,0.54078 -0.68637,0.53038 -0.68637,1.48715 0,0.68637 0.71757,1.06076 0.70717,0.37438 3.00549,0.88396 3.33827,0.74878 4.46143,1.72634 1.12316,0.96716 1.12316,3.10948 0,2.15272 -1.69514,3.42148 -1.69514,1.25835 -4.58623,1.25835 -2.90149,0 -4.53423,-1.34155 -1.63274,-1.34155 -1.74713,-3.81666 v 0 h 3.07828 v 0 q 0.052,1.21676 0.88397,1.87193 0.83197,0.65518 2.31911,0.65518 1.52874,0 2.38151,-0.48879 0.86317,-0.49918 0.86317,-1.37274 0,-0.86317 -0.61358,-1.26876 -0.60317,-0.40558 -2.5791,-0.84236 -3.63986,-0.81117 -4.86702,-1.75754 -1.21675,-0.93596 -1.21675,-2.92229 0,-2.22552 1.61194,-3.52547 1.61194,-1.31035 4.35743,-1.31035 2.56871,0 4.18065,1.35195 1.61194,1.35195 1.78873,3.65026 v 0 z"
     style="font-style:normal;font-variant:normal;font-weight:normal;font-stretch:normal;font-family:Helvetica;-inkscape-font-specification:Helvetica;fill:#3d8f59;fill-opacity:1;stroke-width:0.53246"
     id="path1063" /><path
     d="m 224.85627,289.79628 v 0 h 1.41434 1.42475 v 0 1.67434 0 l 0.19759,-0.28079 q 1.20636,-1.69514 3.18228,-1.69514 2.15272,0 3.45267,1.59114 1.31035,1.59114 1.31035,4.19104 0,2.7559 -1.31035,4.44064 -1.29995,1.68473 -3.45267,1.68473 -1.96552,0 -3.17188,-1.58074 l -0.0624,-0.0832 v 0 5.80299 0 h -1.48714 -1.49754 v 0 z m 5.36619,9.15165 q 1.19596,0 1.87193,-0.89436 0.67598,-0.90477 0.67598,-2.50631 0,-1.63274 -0.67598,-2.5479 -0.66557,-0.92557 -1.86153,-0.92557 -1.19595,0 -1.87193,0.94637 -0.66557,0.94636 -0.66557,2.6311 v 0 0 0 q 0,1.54954 0.66557,2.42311 0.67598,0.87356 1.86153,0.87356 z"
     style="font-style:normal;font-variant:normal;font-weight:normal;font-stretch:normal;font-family:Helvetica;-inkscape-font-specification:Helvetica;fill:#3d8f59;fill-opacity:1;stroke-width:0.53246"
     id="path1065" /><path
     d="m 240.64288,301.40224 q -1.57034,0 -2.52711,-0.89436 -0.95676,-0.90477 -0.95676,-2.37111 0,-1.54955 0.86317,-2.47511 0.86317,-0.93597 2.5167,-1.17516 l 1.96553,-0.27039 q 0.76957,-0.10399 1.27915,-0.35358 0.21839,-0.104 0.33279,-0.37439 0.12479,-0.27039 0.0936,-0.55118 -0.0624,-0.47838 -0.48879,-0.74877 -0.50958,-0.32239 -1.46634,-0.32239 -0.85277,0 -1.33115,0.41598 -0.47838,0.41599 -0.50958,1.17516 v 0 h -2.85989 v 0 q 0.0936,-1.98632 1.35194,-2.97429 1.25836,-0.98796 3.69187,-0.98796 2.11112,0 3.32787,0.89437 1.22716,0.88396 1.22716,2.4231 v 6.32297 q 0,0.75917 0.12479,1.07116 0.1248,0.30159 0.49918,0.47838 v 0.0104 0.40558 h -1.61194 -1.61194 v 0 q -0.19759,-0.68637 -0.25999,-1.34155 l -0.0104,-0.0208 q -1.40394,1.66394 -3.63986,1.66394 z m 3.58786,-4.47183 v -1.29995 0 q -0.51998,0.29119 -1.37274,0.46798 l -1.10236,0.20799 q -0.77997,0.1456 -1.18556,0.54078 -0.40558,0.38479 -0.40558,0.97757 0,0.67597 0.36398,1.06076 0.36399,0.38478 1.01917,0.38478 1.43514,0 2.28791,-1.00876 0.16639,-0.19759 0.28079,-0.58238 0.11439,-0.38478 0.11439,-0.74877 z"
     style="font-style:normal;font-variant:normal;font-weight:normal;font-stretch:normal;font-family:Helvetica;-inkscape-font-specification:Helvetica;fill:#3d8f59;fill-opacity:1;stroke-width:0.53246"
     id="path1067" /><path
     d="m 259.54937,296.92001 v 0 q -0.22879,2.11112 -1.57034,3.29668 -1.34155,1.18555 -3.49427,1.18555 -2.56871,0 -3.97265,-1.52874 -1.39355,-1.52874 -1.39355,-4.35744 0,-2.76629 1.44555,-4.38863 1.45594,-1.63274 3.92065,-1.63274 2.18392,0 3.57746,1.20635 1.39355,1.20636 1.48715,3.17189 v 0 h -3.03669 v 0 q -0.0416,-0.84237 -0.60318,-1.36235 -0.55117,-0.51998 -1.42474,-0.51998 -1.12316,0 -1.71594,0.90476 -0.58238,0.89437 -0.58238,2.6207 0,1.68474 0.58238,2.56871 0.59278,0.87356 1.71594,0.87356 0.81117,0 1.37275,-0.56157 0.56158,-0.56158 0.65517,-1.47675 v 0 z"
     style="font-style:normal;font-variant:normal;font-weight:normal;font-stretch:normal;font-family:Helvetica;-inkscape-font-specification:Helvetica;fill:#3d8f59;fill-opacity:1;stroke-width:0.53246"
     id="path1069" /><path
     d="m 266.10112,301.40224 q -2.5791,0 -3.98305,-1.59114 -1.39355,-1.59114 -1.39355,-4.53423 0,-2.7143 1.42475,-4.24304 1.42475,-1.53914 3.95185,-1.53914 2.5895,0 3.98305,1.57034 1.40395,1.55994 1.40395,4.45103 0.0208,0.33279 -0.052,0.67598 v 0 h -7.70611 v 0 q 0.104,1.34155 0.59278,2.00712 0.62397,0.83197 2.07992,0.83197 0.67597,0 1.24795,-0.38478 0.58238,-0.38479 0.69678,-0.92557 v 0 h 3.03668 v 0 q -0.38478,1.72634 -1.78873,2.7039 -1.39355,0.97756 -3.49427,0.97756 z m 2.27752,-7.11333 v 0 q -0.104,-1.01916 -0.54078,-1.59114 -0.57198,-0.75917 -1.77834,-0.75917 -1.15435,0 -1.75753,0.88396 -0.37439,0.56158 -0.54078,1.46635 v 0 z"
     style="font-style:normal;font-variant:normal;font-weight:normal;font-stretch:normal;font-family:Helvetica;-inkscape-font-specification:Helvetica;fill:#3d8f59;fill-opacity:1;stroke-width:0.53246"
     id="path1071" /><path
     d="m 279.64141,290.36826 q 0,-0.88397 -0.50958,-1.42475 -0.50958,-0.55118 -1.35195,-0.55118 -0.97756,0 -1.51834,0.62398 -0.53038,0.61357 -0.55118,1.75753 v 0 h -2.7455 v 0 q 0.0312,-2.31911 1.33115,-3.56706 1.31035,-1.25836 3.68146,-1.25836 2.03833,0 3.33828,1.18556 1.29995,1.18555 1.29995,3.04708 0,1.61194 -1.35195,2.6415 l -0.40558,0.27039 v 0 q 0.51998,0.1976 0.91516,0.51998 1.29995,1.00877 1.29995,3.03669 0,2.23592 -1.41434,3.54627 -1.40395,1.31035 -3.79586,1.31035 -2.46471,0 -3.82706,-1.28955 -1.35195,-1.29995 -1.38315,-3.69186 v 0 h 2.90149 v 0 q 0.0208,1.27915 0.57198,1.95512 0.56158,0.66558 1.61194,0.66558 1.01916,0 1.64314,-0.67598 0.62398,-0.67597 0.62398,-1.77833 0,-0.96716 -0.62398,-1.55994 -0.55118,-0.50958 -1.39355,-0.57198 -0.46798,-0.0312 -0.87356,-0.0312 -0.39519,-0.0104 -0.50959,0.0208 v -2.20472 q 0.1248,0.0208 0.53038,0.0104 0.40559,-0.0208 0.86317,-0.0728 0.70718,-0.0832 1.12316,-0.48878 0.51998,-0.49918 0.51998,-1.42474 z"
     style="font-style:normal;font-variant:normal;font-weight:normal;font-stretch:normal;font-family:Helvetica;-inkscape-font-specification:Helvetica;fill:#3d8f59;fill-opacity:1;stroke-width:0.53246"
     id="path1073" /><path
     d="m 285.54839,301.11105 v -15.28742 0 h 1.59114 v 0 h 4.95021 q 3.15108,0 4.78382,1.85113 1.64314,1.85113 1.64314,5.41819 0,3.93106 -1.70554,5.97978 -1.69513,2.03832 -4.98141,2.03832 h -4.69022 v 0 z m 3.19268,-2.6311 v 0 h 2.6935 q 1.94472,0 2.91189,-1.31035 0.97756,-1.32075 0.97756,-3.95185 0,-2.38151 -0.90477,-3.56707 -0.90476,-1.19595 -2.72469,-1.19595 h -2.95349 v 0 z"
     style="font-style:normal;font-variant:normal;font-weight:normal;font-stretch:normal;font-family:Helvetica;-inkscape-font-specification:Helvetica;fill:#3d8f59;fill-opacity:1;stroke-width:0.53246"
     id="path1075" /></g></svg>
